<svg xmlns="http://www.w3.org/2000/svg" width="400" height="762.5"><path d="M0 15.567c0 12.079.112 15.612.5 15.768.4.161.4.208 0 .233-.597.038-.696 2.832-.1 2.832.26 0 .4 5.604.4 16.013 0 13.864.08 16.043.6 16.242.52.2.6 2.461.6 16.988 0 14.628.076 16.757.6 16.757s.6 2.079.6 16.311c0 13.948.088 16.437.608 17.179.52.742.609 3.204.611 16.889.002 13.844.083 16.021.592 16.021.559 0 .826 13.367.592 29.667-.039 2.753.078 3.539.571 3.814.542.304.633 2.42.723 16.762.088 13.962.193 16.504.703 17.015.513.513.598 2.856.584 16.242-.009 8.604.124 15.557.296 15.451.171-.106.204.087.073.428-.144.373-.022.621.304.621.448 0 .531 2.427.472 13.9-.08 15.898.097 19.7.918 19.7.462 0 .553 2.717.553 16.456 0 14.18.083 16.517.601 16.9.518.382.603 2.71.61 16.744.008 14.093.089 16.3.599 16.3s.59 2.211.59 16.371c0 14.061.085 16.457.603 16.975.518.518.604 2.847.607 16.33.002 13.072.102 15.919.592 16.863.49.944.593 3.839.607 17.087.015 13.549.106 15.998.601 16.276.496.277.59 2.783.621 16.617.032 14.107.119 16.374.653 16.908.531.531.63 2.815.715 16.495.112 18.113.047 16.623.717 16.366.415-.16.498 2.06.424 11.358-.05 6.355.049 12.447.222 13.537.183 1.159.157 2.138-.063 2.358-.601.601.077 6.459.748 6.459.462 0 .553 2.701.553 16.351 0 14.046.085 16.421.6 16.849.515.428.6 2.78.6 16.649 0 14.09.077 16.151.6 16.151.524 0 .6 2.108.6 16.571 0 14.039.09 16.662.587 17.159.496.496.594 3.148.63 17.053.035 13.862.132 16.499.612 16.684.479.183.571 2.373.571 13.542 0 10.285.114 13.37.5 13.526.4.161.4.208 0 .233-.79.05-.691 5.232.1 5.232.671 0 .638-1.014.6 18.1l-.022 11.5h11.211c7.207 0 11.211-.143 11.211-.4 0-.249 2.26-.4 5.98-.4 4.82 0 6.043-.113 6.306-.583.25-.446 1.322-.597 4.595-.645 3.227-.047 4.32-.198 4.481-.617.163-.425 1.202-.555 4.425-.555 3.478 0 4.213-.105 4.213-.6 0-.486.641-.6 3.371-.6 2.464 0 3.533-.162 3.972-.6.405-.405 1.411-.6 3.097-.6 1.592 0 2.726-.206 3.129-.567.347-.312 1.621-.613 2.831-.668 1.21-.056 2.555-.34 2.989-.633.434-.293 1.835-.532 3.113-.532 1.696 0 2.385-.162 2.553-.6.156-.405.791-.6 1.955-.6 2.106 0 2.99-.308 2.99-1.043 0-.419.644-.557 2.6-.557 2.044 0 2.6-.128 2.6-.6 0-.467.533-.6 2.4-.6s2.4-.133 2.4-.6c0-.442.462-.6 1.757-.6 1.193 0 1.831-.193 1.988-.6.166-.434.846-.6 2.455-.6s2.289-.166 2.455-.6c.157-.408.796-.6 2-.6s1.844-.192 2-.6c.157-.407.795-.6 1.988-.6 1.295 0 1.757-.158 1.757-.6 0-.444.467-.6 1.8-.6s1.8-.156 1.8-.6c0-.416.419-.6 1.367-.6 1.762 0 2.633-.345 2.633-1.043 0-.394.528-.557 1.8-.557 1.333 0 1.8-.156 1.8-.6 0-.444.467-.6 1.8-.6s1.8-.156 1.8-.6c0-.419.422-.6 1.4-.6s1.4-.181 1.4-.6c0-.444.467-.6 1.8-.6s1.8-.156 1.8-.6c0-.4.4-.6 1.2-.6.874 0 1.202-.19 1.206-.7.005-.598.063-.613.394-.1.258.4.39.433.394.1.004-.304.558-.5 1.419-.5.886 0 1.498-.223 1.642-.6.129-.334.723-.6 1.341-.6.792 0 1.174-.241 1.33-.84.125-.476.41-.723.657-.571.69.427 2.817-.193 2.817-.821 0-.383.457-.568 1.4-.568.978 0 1.4-.181 1.4-.6 0-.4.4-.6 1.2-.6.8 0 1.2-.2 1.2-.6 0-.415.417-.6 1.351-.6.743 0 1.575-.27 1.849-.6.274-.33.932-.6 1.462-.6.529 0 1.067-.27 1.193-.6.132-.344.73-.6 1.4-.6.671 0 1.268-.256 1.4-.6.127-.33.667-.6 1.2-.6.534 0 1.074-.27 1.2-.6.127-.33.621-.6 1.099-.6.477 0 1.173-.356 1.546-.792.373-.435.942-.69 1.265-.566.339.13.806-.126 1.107-.609.323-.517.939-.833 1.624-.833.715 0 1.104-.212 1.104-.6 0-.4.4-.6 1.2-.6.8 0 1.2-.2 1.2-.6 0-.4.4-.6 1.2-.6.8 0 1.2-.2 1.2-.6 0-.375.379-.6 1.013-.6.556 0 1.116-.27 1.242-.6.127-.33.592-.6 1.034-.6.575 0 .751-.204.618-.713-.157-.599.027-.687 1.153-.556 1.03.12 1.34.007 1.34-.487 0-.449.364-.644 1.2-.644.735 0 1.161-.19 1.1-.491-.055-.269.305-.552.8-.627.495-.076.9-.316.9-.533 0-.218.18-.285.4-.149.22.136.4-.033.4-.376 0-.344.337-.624.751-.624.413 0 .975-.27 1.249-.6.274-.33.836-.6 1.249-.6.413 0 .751-.27.751-.6 0-.4.4-.6 1.2-.6.8 0 1.2-.2 1.2-.6 0-.33.349-.6.776-.6.427 0 .905-.208 1.062-.462.192-.31.102-.355-.276-.136-.333.193-.426.178-.229-.038.331-.361.514-.418 1.667-.514.33-.027.6-.32.6-.65 0-.395.395-.6 1.157-.6.66 0 1.256-.258 1.388-.6.126-.33.506-.6.842-.6.337 0 .613-.247.613-.55 0-.302.54-.658 1.2-.79.704-.141 1.2-.492 1.2-.85 0-.335.27-.61.6-.61.33 0 .6-.27.6-.6 0-.4.4-.6 1.2-.6.8 0 1.2-.2 1.2-.6 0-.33.347-.6.771-.6.425 0 1.042-.27 1.372-.6.33-.33.902-.6 1.271-.6.433 0 .59-.214.441-.6-.156-.408.022-.6.558-.6.433 0 .787-.27.787-.6 0-.4.4-.6 1.2-.6.8 0 1.2-.2 1.2-.6 0-.33.27-.6.6-.6.33 0 .6-.249.6-.553 0-.499 1.347-1.199 2.1-1.09.165.024.255-.178.2-.448-.055-.269.305-.552.8-.627.495-.076.9-.395.9-.71 0-.315.371-.572.824-.572.453 0 .72-.167.594-.371-.22-.357 1.262-1.072 1.882-.908.165.043.3-.191.3-.521s.27-.6.6-.6c.33 0 .6-.247.6-.55 0-.302.54-.658 1.2-.79.727-.145 1.2-.49 1.2-.874 0-.348.177-.524.394-.39.217.134.931-.305 1.587-.976.655-.671 1.301-1.22 1.434-1.22.618 0 1.369-1.139.881-1.336-.273-.111.089-.215.804-.232.715-.018 1.3-.212 1.3-.432 0-.519 1.481-2 2-2 .22 0 .4-.248.4-.55 0-.302.54-.658 1.2-.79.691-.138 1.2-.494 1.2-.837 0-.403.229-.512.7-.336.616.231.634.181.143-.421-.492-.605-.472-.652.166-.407.515.197.634.135.416-.218-.207-.336-.068-.454.435-.368.427.073.698-.084.64-.373-.055-.275.26-.5.7-.5.529 0 .8-.267.8-.787 0-.536.192-.714.6-.558.416.16.6-.027.6-.612 0-.635.25-.843 1.013-.843.556 0 1.116-.27 1.242-.6.127-.33.481-.6.788-.6.306 0 .557-.27.557-.6 0-.33.251-.6.557-.6.307 0 .661-.27.788-.6.126-.33.506-.6.842-.6.337 0 .613-.27.613-.6 0-.33.27-.6.6-.6.33 0 .6-.27.6-.6 0-.33.27-.6.6-.6.33 0 .6-.27.6-.6 0-.33.27-.6.6-.6.33 0 .6-.27.6-.6 0-.33.27-.6.6-.6.333 0 .6-.356.6-.8 0-.589.267-.8 1.013-.8.556 0 1.116-.27 1.242-.6.127-.33.481-.6.788-.6.306 0 .557-.27.557-.6 0-.33.181-.6.402-.6.512 0 4.596-4.099 4.483-4.5-.047-.165.14-.303.415-.307.61-.008 2.3-1.735 2.3-2.349 0-.244.27-.444.6-.444.339 0 .6-.358.6-.824 0-.495.175-.715.438-.552.241.149.951-.291 1.578-.977.626-.686 1.329-1.247 1.561-1.247.233 0 .423-.27.423-.6 0-.33.27-.6.6-.6.33 0 .608-.225.617-.5.009-.275.549-.942 1.2-1.481.651-.54 1.183-1.215 1.183-1.5 0-.286.27-.519.6-.519.33 0 .6-.27.6-.6 0-.33.27-.6.6-.6.33 0 .6-.27.6-.6 0-.33.27-.6.6-.6.531 0 .808-.756.636-1.734-.032-.184.306-.43.753-.547.446-.117.811-.461.811-.766 0-.304.27-.553.6-.553.33 0 .6-.27.6-.6 0-.33.27-.6.6-.6.33 0 .6-.27.6-.6 0-.33.27-.6.6-.6.33 0 .6-.251.6-.557 0-.307.27-.661.6-.788.33-.126.6-.506.6-.842 0-.337.27-.613.6-.613.33 0 .6-.27.6-.6 0-.33.27-.6.6-.6.33 0 .6-.18.6-.4 0-.22.36-.76.8-1.2.44-.44.8-1.07.8-1.4 0-.33.281-.6.624-.6.343 0 .504-.192.359-.427-.145-.235.114-.526.577-.647.462-.12.84-.468.84-.773 0-.304.27-.553.6-.553.33 0 .6-.276.6-.613 0-.336.27-.716.6-.842.33-.127.6-.462.6-.745s.27-.618.6-.745c.33-.126.6-.686.6-1.242 0-.634.225-1.013.6-1.013.33 0 .6-.27.6-.6 0-.33.27-.6.6-.6.33 0 .6-.354.6-.787 0-.571.184-.717.666-.532.447.171.57.102.376-.213-.159-.257-.099-.468.134-.468s.424-.251.424-.557c0-.307.281-.665.625-.797s.513-.423.375-.646c-.138-.223.024-.511.359-.64.336-.129.72-.577.853-.997.133-.42.5-.763.815-.763a.567.567 0 00.573-.557c0-.307.27-.661.6-.788.33-.126.6-.686.6-1.242 0-.634.225-1.013.6-1.013.33 0 .6-.233.6-.519 0-.285.532-.96 1.183-1.5.651-.539 1.191-1.365 1.2-1.834.01-.508.341-.938.817-1.063.44-.115.8-.477.8-.804 0-.327.27-.698.6-.825.33-.126.6-.686.6-1.242 0-.634.225-1.013.6-1.013.33 0 .6-.27.6-.6 0-.33.27-.6.6-.6.33 0 .6-.338.6-.751s.27-.975.6-1.249c.33-.274.6-.746.6-1.049 0-.303.27-.551.6-.551.33 0 .6-.341.6-.757 0-.417.272-.862.604-.989.332-.127.58-.372.552-.543-.159-.972.119-1.711.644-1.711.33 0 .6-.317.6-.704 0-.387.367-.933.816-1.213.448-.28.713-.674.588-.876-.124-.202.139-.562.585-.801.478-.256.811-.839.811-1.42 0-.61.229-.986.6-.986.33 0 .6-.276.6-.613 0-.336.27-.716.6-.842.342-.132.6-.728.6-1.388 0-.762.205-1.157.6-1.157.33 0 .6-.193.6-.429 0-.235.27-.698.6-1.028.33-.33.6-.947.6-1.372 0-.424.27-.771.6-.771.4 0 .6-.4.6-1.2 0-.8.2-1.2.6-1.2.33 0 .6-.332.6-.738 0-.406.344-1.049.764-1.429.42-.381.874-1.129 1.008-1.662.134-.534.42-.971.636-.971.215 0 .392-.36.392-.8 0-.444.267-.8.6-.8.4 0 .6-.4.6-1.2 0-.8.2-1.2.6-1.2.418 0 .6-.421.6-1.387 0-1.069.138-1.335.6-1.158.41.158.6-.023.6-.569 0-.44.27-.904.6-1.031.33-.126.6-.686.6-1.242 0-.634.225-1.013.6-1.013.4 0 .6-.4.6-1.2 0-.8.2-1.2.6-1.2.4 0 .6-.4.6-1.2 0-.8.2-1.2.6-1.2.511 0 .784-.682.663-1.652-.017-.139.322-.572.753-.962.431-.391.784-1.113.784-1.605 0-.493.27-.999.6-1.126.33-.126.6-.666.6-1.2 0-.533.27-1.073.6-1.2.33-.126.6-.691.6-1.255s.27-1.129.6-1.255c.335-.129.6-.723.6-1.345s.265-1.216.6-1.345c.396-.152.6-.778.6-1.842 0-1.167.166-1.613.6-1.613.4 0 .6-.4.6-1.2 0-.8.2-1.2.6-1.2.382 0 .6-.384.6-1.056 0-.581.272-1.256.605-1.5.332-.244.679-.836.771-1.314.092-.479.47-1.334.842-1.901.371-.567.583-1.383.47-1.815-.211-.805.577-1.815 1.049-1.344.145.145.263-.312.263-1.016 0-.768.24-1.371.6-1.509.407-.157.6-.795.6-1.988 0-1.295.158-1.757.6-1.757.395 0 .6-.395.6-1.157 0-.66.258-1.256.6-1.388.396-.152.6-.778.6-1.842 0-1.167.166-1.613.6-1.613.33 0 .579-.135.553-.3-.248-1.567.125-3.7.647-3.7.4 0 .6-.4.6-1.2 0-.667.356-1.556.8-2 .44-.44.8-1.263.8-1.829 0-.565.27-1.298.6-1.628.33-.33.6-1.14.6-1.8 0-.66.27-1.47.6-1.8.33-.33.6-1.285.6-2.123 0-.865.259-1.737.6-2.02.362-.3.6-1.176.6-2.206 0-1.15.196-1.784.6-1.939.423-.162.6-.821.6-2.23 0-1.504.132-1.949.534-1.795.395.151.554-.292.607-1.688.039-1.041.338-2.188.665-2.549.347-.383.594-1.433.594-2.524 0-1.395.152-1.869.6-1.869.462 0 .6-.517.6-2.256 0-1.624.183-2.389.652-2.733.408-.298.729-1.291.856-2.644.112-1.192.394-2.29.627-2.44.233-.15.5-1.5.593-3 .108-1.747.367-2.842.72-3.047.365-.211.556-1.094.565-2.6.007-1.367.248-2.591.6-3.056.4-.529.587-1.773.587-3.9 0-2.51.118-3.124.6-3.124.481 0 .6-.603.6-3.029 0-2.028.181-3.209.547-3.575.371-.371.571-1.736.622-4.243.059-2.946.212-3.801.753-4.212.627-.477.62-.517-.098-.528-.711-.012-.72-.055-.11-.513.535-.401.689-1.333.777-4.7.08-3.101.24-4.174.609-4.1.383.077.5-1.353.5-6.1 0-4.69.122-6.201.5-6.206.333-.004.3-.136-.1-.394s-.433-.39-.1-.394c.734-.009.734-60.803 0-60.812-.333-.004-.3-.136.1-.394s.433-.39.1-.394c-.38-.005-.5-1.632-.5-6.786 0-5.626-.103-6.838-.603-7.118-.477-.267-.609-1.248-.63-4.697-.021-3.434-.157-4.455-.64-4.809-.481-.352-.603-1.242-.564-4.132.04-2.955-.07-3.73-.557-3.917-.479-.184-.606-.98-.606-3.79 0-2.895-.112-3.557-.6-3.557-.48 0-.6-.601-.6-3.013 0-2.308-.14-3.066-.6-3.242-.453-.174-.6-.907-.6-3s-.147-2.826-.6-3c-.439-.169-.6-.859-.6-2.568 0-1.593-.18-2.439-.564-2.657-.325-.184-.609-1.084-.669-2.12-.12-2.051-.629-3.332-1.187-2.988-.225.14-.38-.834-.38-2.388 0-2.028-.132-2.624-.581-2.624-.433 0-.611-.636-.7-2.5-.083-1.738-.271-2.47-.619-2.4-.347.069-.5-.519-.5-1.929 0-1.269-.224-2.253-.6-2.628-.331-.331-.6-1.309-.6-2.184 0-1.039-.206-1.663-.6-1.814-.42-.162-.6-.817-.6-2.188 0-1.473-.148-1.957-.6-1.957-.444 0-.6-.467-.6-1.8 0-1.303-.16-1.8-.578-1.8-.406 0-.614-.566-.7-1.9-.081-1.258-.291-1.866-.622-1.8-.432.086-.766-1.927-.536-3.234.032-.184-.306-.43-.753-.547-.659-.173-.811-.54-.811-1.966 0-1.292-.158-1.753-.6-1.753-.442 0-.6-.462-.6-1.757 0-1.193-.193-1.831-.6-1.988-.351-.134-.6-.734-.6-1.442 0-.812-.199-1.213-.6-1.213-.434 0-.6-.446-.6-1.613 0-1.064-.204-1.69-.6-1.842-.364-.14-.6-.745-.6-1.539 0-.719-.27-1.532-.6-1.806-.33-.274-.6-1.035-.6-1.692 0-.892-.15-1.136-.595-.965-.328.125-.576.1-.553-.057.206-1.382-.134-2.886-.652-2.886-.33 0-.622-.36-.65-.8-.027-.44-.095-.98-.15-1.2a7.883 7.883 0 01-.15-1 .666.666 0 00-.65-.6c-.419 0-.6-.422-.6-1.4 0-.907-.176-1.365-.5-1.3-.299.06-.55-.422-.625-1.2-.078-.805-.344-1.3-.7-1.3-.58 0-.726-.418-.596-1.7.041-.398-.198-.7-.554-.7-.451 0-.625-.401-.625-1.443 0-1.118-.135-1.391-.6-1.212-.455.174-.6-.074-.6-1.026 0-.691-.313-1.601-.695-2.024-.382-.422-.714-.976-.739-1.231-.024-.255-.072-.79-.105-1.188-.034-.398-.241-.612-.461-.476-.22.136-.4-.099-.4-.522 0-.424-.368-1.238-.818-1.81-.45-.572-.81-1.136-.8-1.254.087-1.034-.07-1.414-.582-1.414-.33 0-.6-.347-.6-.771 0-.425-.27-1.042-.6-1.372-.33-.33-.6-.883-.6-1.228 0-.346-.27-.629-.6-.629-.4 0-.6-.4-.6-1.2 0-.776-.203-1.2-.575-1.2-.356 0-.622-.495-.7-1.3-.075-.778-.326-1.26-.625-1.2-.324.065-.5-.393-.5-1.3 0-.978-.181-1.4-.6-1.4-.366 0-.6-.373-.6-.957 0-.527-.27-1.061-.6-1.188-.33-.126-.6-.484-.6-.793 0-.31-.27-.788-.6-1.062-.33-.274-.6-.836-.6-1.249 0-.484-.284-.751-.8-.751-.648 0-.8-.267-.8-1.4 0-.978-.181-1.4-.6-1.4-.569 0-.762-.438-.64-1.454.03-.25-.219-.56-.553-.688-.334-.128-.607-.509-.607-.845a.608.608 0 00-.6-.613c-.4 0-.6-.4-.6-1.2 0-.8-.2-1.2-.6-1.2-.33 0-.6-.246-.6-.546 0-.3-.373-1.02-.829-1.6-.456-.58-.681-1.06-.5-1.067.181-.007.043-.232-.307-.5-.349-.268-.967-1.187-1.372-2.043-.405-.856-1.064-1.642-1.464-1.747-.492-.128-.728-.565-.728-1.344 0-.758-.205-1.153-.6-1.153-.33 0-.6-.27-.6-.6 0-.33-.27-.6-.6-.6-.39 0-.6-.391-.6-1.119 0-.751-.388-1.44-1.183-2.1-.659-.547-1.191-1.385-1.2-1.894-.009-.501-.287-1.016-.617-1.142-.33-.127-.6-.492-.6-.811 0-.32-.18-.47-.401-.334-.22.137-.583-.168-.806-.676-.782-1.785-1.901-3.323-2.345-3.224-.246.055-.448-.26-.448-.7 0-.44-.258-.8-.573-.8-.329 0-.628-.47-.7-1.1-.072-.619-.346-1.056-.627-1-.275.055-.5-.26-.5-.7 0-.444-.267-.8-.6-.8-.33 0-.6-.27-.6-.6 0-.33-.27-.6-.6-.6-.379 0-.6-.382-.6-1.037 0-.7-.259-1.106-.796-1.246-.437-.114-.692-.374-.567-.577.26-.421-2.98-3.793-3.498-3.64-.186.055-.318-.035-.292-.2.175-1.103-.133-2.1-.647-2.1-.33 0-.6-.27-.6-.6 0-.33-.27-.6-.6-.6-.33 0-.6-.27-.6-.6 0-.33-.27-.6-.6-.6-.33 0-.6-.27-.6-.6 0-.33-.27-.6-.6-.6-.384 0-.6-.385-.6-1.069 0-.744-.546-1.592-1.8-2.793-.99-.948-1.8-1.908-1.8-2.131 0-.224-.36-.407-.8-.407-.444 0-.8-.267-.8-.6 0-.33-.27-.6-.6-.6-.375 0-.6-.379-.6-1.013 0-.556-.27-1.116-.6-1.242-.33-.127-.6-.481-.6-.788 0-.306-.27-.557-.6-.557-.33 0-.6-.251-.6-.557 0-.307-.27-.661-.6-.788-.33-.126-.6-.506-.6-.842a.608.608 0 00-.6-.613c-.33 0-.6-.27-.6-.6 0-.33-.27-.6-.6-.6-.33 0-.6-.27-.6-.6 0-.33-.27-.6-.6-.6-.33 0-.6-.27-.6-.6 0-.333-.356-.6-.8-.6-.444 0-.8-.267-.8-.6 0-.33-.27-.6-.6-.6-.33 0-.6-.27-.6-.6 0-.33-.27-.6-.6-.6-.33 0-.6-.27-.6-.6 0-.33-.27-.6-.6-.6-.339 0-.6-.358-.6-.824 0-.453-.18-.712-.401-.576-.22.137-.575-.211-.788-.772-.213-.56-1.203-1.8-2.199-2.755-.997-.955-1.812-1.947-1.812-2.204 0-.258-.27-.469-.6-.469-.33 0-.6-.27-.6-.6 0-.33-.135-.579-.3-.553-.803.127-1.29-.095-1.2-.547.055-.275-.125-.455-.4-.4-.275.055-.5-.091-.5-.324s-.178-.313-.395-.179c-.235.145-.289-.034-.132-.442.178-.466.112-.593-.205-.397-.257.159-.468.088-.468-.158s-.182-.335-.403-.198c-.222.137-.558-.167-.746-.676-.189-.509-.457-.881-.597-.826-.662.26-1.007.044-.799-.5.146-.38-.005-.6-.412-.6-.354 0-.643-.27-.643-.6 0-.33-.27-.6-.6-.6-.33 0-.6-.27-.6-.6 0-.333-.356-.6-.8-.6-.444 0-.8-.267-.8-.6 0-.33-.27-.6-.6-.6-.33 0-.6-.27-.6-.6 0-.33-.27-.6-.6-.6-.33 0-.6-.251-.6-.557 0-.307-.27-.661-.6-.788-.33-.126-.6-.506-.6-.842A.608.608 0 00275 98c-.33 0-.6-.27-.6-.6 0-.33-.251-.6-.557-.6-.307 0-.661-.27-.788-.6-.126-.33-.506-.6-.842-.6-.337 0-.613-.226-.613-.502 0-.277-.904-.917-2.009-1.424-1.105-.507-1.904-1.091-1.776-1.298.128-.207-.048-.376-.391-.376a.635.635 0 01-.624-.643c0-.394-.222-.557-.575-.422-.375.144-.622-.085-.71-.657-.074-.483-.355-.833-.624-.778-.27.055-.491-.136-.491-.425 0-.628-2.129-2.275-2.941-2.275-.315 0-.677-.27-.804-.6-.126-.33-.506-.6-.842-.6a.608.608 0 01-.613-.6c0-.33-.27-.6-.6-.6-.33 0-.6-.27-.6-.6 0-.33-.27-.6-.6-.6-.33 0-.6-.27-.6-.6 0-.4-.4-.6-1.2-.6-.8 0-1.2-.2-1.2-.6 0-.33-.249-.6-.553-.6-.305 0-.658-.397-.784-.883-.127-.485-.357-.756-.511-.602-.154.154-.524-.068-.822-.493-.33-.472-.868-.711-1.377-.613-.576.111-.9-.083-1.041-.624-.113-.432-.454-.785-.759-.785-.304 0-.553-.27-.553-.6 0-.33-.27-.6-.6-.6-.33 0-.6-.27-.6-.6 0-.4-.4-.6-1.2-.6-.8 0-1.2-.2-1.2-.6 0-.33-.27-.6-.6-.6-.33 0-.6-.27-.6-.6 0-.33-.276-.6-.613-.6-.336 0-.716-.27-.842-.6-.132-.342-.728-.6-1.388-.6-1.042 0-1.363-.358-1.194-1.33.031-.181-.119-.221-.333-.089-.214.133-.595-.142-.845-.61-.328-.611-.727-.799-1.42-.666-.871.166-1.153-.114-1.012-1.005.026-.165-.223-.3-.553-.3-.33 0-.6-.27-.6-.6 0-.33-.338-.6-.751-.6s-.975-.27-1.249-.6c-.274-.33-.847-.6-1.273-.6-.426 0-.667-.173-.536-.385.131-.212-.665-.797-1.768-1.3-1.104-.503-2.01-1.14-2.015-1.415-.005-.287-.519-.5-1.208-.5-.66 0-1.2-.18-1.2-.4 0-.644-1.708-2.167-2.579-2.3-.441-.068-.95-.387-1.131-.711-.181-.324-.572-.589-.867-.589-.296 0-.641-.27-.768-.6-.126-.33-.686-.6-1.242-.6-.634 0-1.013-.225-1.013-.6 0-.4-.4-.6-1.2-.6-.838 0-1.2-.195-1.2-.647 0-.441-.244-.582-.77-.445-.541.142-.707.036-.557-.355.144-.374-.184-.635-1.004-.799-.67-.134-1.314-.494-1.431-.799-.117-.305-.738-.555-1.379-.555-.814 0-1.226-.232-1.367-.77-.145-.555-.493-.737-1.247-.655-.794.087-1.045-.064-1.045-.63 0-.41-.193-.745-.429-.745-.235 0-.698-.27-1.028-.6-.33-.33-1.037-.6-1.572-.6-.563 0-.929-.21-.871-.5.06-.299-.422-.55-1.2-.625-.825-.08-1.3-.342-1.3-.718 0-.326-.225-.563-.5-.527-1.206.157-1.9-.073-1.9-.63 0-.4-.4-.6-1.2-.6-.8 0-1.2-.2-1.2-.6 0-.395-.395-.6-1.157-.6-.66 0-1.256-.258-1.388-.6-.134-.351-.734-.6-1.442-.6-.812 0-1.213-.199-1.213-.6 0-.531-.756-.808-1.734-.636-.184.032-.428-.296-.541-.73-.14-.536-.611-.829-1.466-.912-.747-.072-1.218-.325-1.159-.622.062-.308-.345-.5-1.057-.5-.66 0-1.256-.258-1.388-.6-.134-.351-.734-.6-1.442-.6-.812 0-1.213-.199-1.213-.6 0-.4-.4-.6-1.2-.6-.8 0-1.2-.2-1.2-.6 0-.395-.395-.6-1.157-.6-.66 0-1.256-.258-1.388-.6-.157-.41-.799-.6-2.03-.6-1.436 0-1.753-.121-1.57-.6.179-.465-.094-.6-1.212-.6-1.016 0-1.443-.178-1.443-.6 0-.589-.298-.712-1.7-.707-.385.002-.7-.263-.7-.588 0-.441-.281-.526-1.1-.336-.816.189-.945.151-.5-.151.467-.316.322-.407-.657-.412-.744-.003-1.351-.251-1.488-.606-.134-.351-.734-.6-1.442-.6-.812 0-1.213-.199-1.213-.6 0-.444-.467-.6-1.8-.6s-1.8-.156-1.8-.6c0-.401-.401-.6-1.213-.6-.706 0-1.308-.249-1.441-.598-.127-.328-.394-.496-.594-.372-.201.124-.244.421-.097.659.162.262.082.319-.2.145-.257-.159-.364-.457-.238-.662.127-.204-.41-.372-1.193-.372-.999 0-1.424-.179-1.424-.6 0-.444-.467-.6-1.8-.6s-1.8-.156-1.8-.6c0-.439-.456-.6-1.704-.6-1.232 0-1.833-.207-2.172-.749-.347-.557-.887-.732-2.096-.68-1.341.058-1.628-.059-1.628-.668 0-.406-.225-.709-.5-.673-1.648.214-3.1-.081-3.1-.63 0-.445-.468-.6-1.813-.6-1.242 0-1.885-.189-2.042-.6-.161-.419-.816-.6-2.175-.6-1.417 0-1.892-.139-1.748-.513.139-.364-.328-.535-1.614-.591-.995-.043-2.25-.367-2.788-.72-.538-.352-1.077-.626-1.199-.608-1.54.224-3.021-.054-3.021-.568 0-.467-.533-.6-2.4-.6-1.918 0-2.4-.127-2.4-.63 0-.438-.335-.608-1.1-.558-2.753.182-4.1-.019-4.1-.612 0-.615-.291-.691-2.917-.765-.849-.024-1.674-.296-1.873-.619-.238-.384-1.144-.595-2.725-.633-1.479-.035-2.725-.306-3.316-.72-.612-.428-1.75-.663-3.215-.663-1.647 0-2.331-.164-2.499-.6-.179-.468-.978-.6-3.642-.6-2.767 0-3.413-.114-3.413-.6 0-.491-.689-.6-3.8-.6-3.111 0-3.8-.109-3.8-.6s-.684-.6-3.757-.6c-2.971 0-3.806-.126-3.988-.6-.187-.487-1.134-.6-5.042-.6-3.879 0-4.813-.11-4.813-.565 0-.462-1.22-.574-6.7-.615-3.889-.029-6.756-.211-6.833-.435C45.583.144 37.004 0 22.767 0H0v15.567" fill="#8c7cfc" fill-rule="evenodd"/></svg>