<svg xmlns="http://www.w3.org/2000/svg" width="400" height="394.631"><path d="M5.218.445c-.714.206-1.193.544-1.065.75.128.207-.043.27-.381.14-.403-.154-.613-.009-.613.423 0 .366-.187.542-.422.397-.231-.143-.518.111-.637.565-.118.454-.347.744-.508.644-.42-.26-1.216 1.655-.962 2.317.117.306.043.662-.165.791-.537.332-.584 6.559-.05 6.559.232 0 .305.188.163.418-.419.678.641 2.812 1.276 2.568.329-.126.45-.041.296.207-.584.946 2.247 2.712 4.438 2.769 1.335.035 1.394.075.52.355-1.039.333 1.035.652 2.961.456a17.031 17.031 0 011.58-.074c.641.005 2.132-.531 2.919-1.05.085-.056-.093-.415-.395-.798-.518-.655-.494-.66.405-.081.889.571 3.727-1.197 3.797-2.365.008-.129.236-.633.508-1.122.398-.716.395-.891-.014-.901-.349-.009-.309-.164.126-.495.824-.628 1.29-2.119.764-2.444-.226-.14-.408-.466-.404-.724.003-.285.16-.236.396.122.293.443.369.262.303-.721-.049-.723-.219-1.395-.38-1.494-.16-.099-.2-.418-.088-.709.111-.29-.042-.773-.342-1.073-.597-.597-.685-.826-.685-1.771 0-.39-.219-.551-.568-.417-.371.143-.61-.082-.691-.649-.088-.617-.379-.853-1.012-.819-.488.026-.888-.107-.888-.296s.222-.349.493-.356c.272-.006.179-.195-.205-.419C13.899.107 7.991-.388 7.454.459c-.25.394-.336.403-.34.035-.007-.561-.11-.564-1.896-.049m127.26-.056c-.435.184-1.14.448-1.569.586-.651.211-.683.312-.197.62.459.29.395.369-.307.373-.489.004-.889.195-.889.425 0 .229-.203.292-.452.138-.312-.193-.39.045-.251.77.156.82.09.958-.305.63-.458-.38-1.062.503-1.144 1.676-.011.152-.242.499-.513.77-.272.272-.494.646-.494.833 0 .186.222.206.494.043.372-.224.389-.157.067.272-.612.817-.648 4.414-.042 4.073.329-.184.323-.106-.02.264-.39.42-.358.67.16 1.242.357.394.504.716.329.716-.176 0 .018.386.432.858.503.573.556.76.16.563-.482-.24-.477-.197.024.228.34.288.741.854.894 1.259.177.473.538.667 1.009.544.485-.127.717.01.686.406-.026.335.474.773 1.138.996.652.219 1.289.558 1.417.753.128.195.691.272 1.25.17.559-.101 1.126-.076 1.258.057.388.388 1.801.51 1.801.155 0-.178.525-.247 1.167-.152 1.246.182 3.388-1.105 2.867-1.724-.156-.184.012-.111.373.164.708.54 1.375.007.917-.733-.137-.222-.103-.379.076-.348 1.027.179 1.51-.049.917-.432-.511-.33-.501-.383.071-.388.905-.009 1.904-1.078 1.904-2.037 0-.435.27-1.06.601-1.391.455-.455.617-2.699.194-2.699-.032 0-.135-.622-.228-1.382-.122-.999-.062-1.218.218-.79.606.928.492-.199-.185-1.818-.352-.843-.758-1.289-1.025-1.125-.279.173-.388.001-.297-.465.175-.899-1.221-2.611-1.913-2.346-.274.106-.621-.006-.77-.247-.174-.281-.089-.326.236-.125.329.203.448.134.337-.198-.094-.281-.552-.652-1.018-.824-.686-.254-.801-.191-.602.327.181.474.037.432-.554-.159-.975-.974-5.717-1.282-6.759-.438-.478.387-.557.391-.331.015.336-.561.012-.591-1.132-.105m127.344.043c0 .222-.162.304-.361.181-.515-.318-2.494.499-2.234.921.12.193-.135.443-.566.555-.431.113-.9.533-1.042.934-.142.4-.571 1.084-.955 1.518-.383.434-.756 1.145-.829 1.579-.073.435-.311.923-.528 1.086-.262.197-.257.396.013.593.353.255.468 1.081.193 1.382-.34.373-.262 3.06.09 3.06.235 0 .316.112.178.249-.137.138.361.963 1.107 1.834.746.872 1.267 1.73 1.157 1.908-.279.452 1.492 2.15 2.097 2.011.273-.063.496.072.496.298 0 .227.444.413.987.413.543 0 .987.164.987.365 0 .201.706.315 1.568.254.862-.062 1.474.04 1.359.227-.115.186-.032.338.185.338a.771.771 0 00.593-.32c.109-.176.742-.283 1.406-.237.664.046 1.207-.056 1.207-.226 0-.327 1.536-.923 2.121-.823.19.033.241-.213.113-.545-.127-.332-.104-.584.051-.561.155.023.415-.002.578-.054.163-.053.51-.119.772-.146.261-.027.599-.494.75-1.036.151-.543.304-.81.339-.593.035.217.258-.049.496-.592.237-.543.4-1.189.362-1.436-.037-.247.184-.545.492-.663.416-.16.56-.997.56-3.262 0-1.825-.134-2.831-.334-2.507-.379.613-.791-.103-.697-1.214.105-1.251-.09-2.011-.458-1.784-.211.13-.494-.203-.629-.74-.157-.627-.444-.901-.801-.764-.306.118-.556-.002-.556-.266 0-.282-.267-.377-.648-.23-.54.207-.566.149-.153-.348.54-.652-.348-1.314-1.121-.836-.209.129-.452.019-.54-.245-.204-.612-7.805-.883-7.805-.278M386.278.279c-.488.094-.888.336-.888.538s-.267.368-.592.368c-.831 0-2.257 1.516-1.928 2.049.155.252.096.332-.138.188-.668-.413-1.472.819-.948 1.451.516.621.201 1.082-.543.797-.559-.215-1.186 1.187-.806 1.802.126.204.071.469-.123.588-.511.316-.432 2.205.093 2.213.317.004.313.089-.014.297-.257.164-.367.763-.251 1.371.12.624.383.972.624.823.261-.162.32-.007.159.414-.157.408-.039.756.299.886.306.118.49.56.409.983-.082.423.02.665.226.537.206-.127.374-.082.374.099 0 .591 2.305 2.872 2.453 2.427.083-.248.64-.018 1.313.541 1.128.938 4.921 1.835 4.921 1.164 0-.169.622-.235 1.382-.147 1.043.122 1.382.015 1.382-.437 0-.405.257-.531.796-.39.642.168.745.066.534-.531-.206-.582-.156-.641.24-.276.584.54 1.589.263 1.589-.438 0-.266.425-.711.944-.988.519-.278 1.14-.938 1.382-1.468.547-1.2.562-1.838.037-1.513-.221.136-.312.393-.202.571.11.177-.109.565-.487.861-.621.487-.635.473-.145-.153.298-.38.387-.697.198-.704-.19-.007.069-.358.574-.779.956-.796.964-.941.463-7.994-.027-.38-.216-.691-.419-.691-.204 0-.35-.133-.324-.296.129-.814-.105-1.283-.639-1.283-.326 0-.548-.222-.493-.494.054-.271-.199-.471-.562-.444-.386.03-.579-.16-.465-.458.176-.457-.268-.715-2.231-1.298-1.693-.503-6.048-.507-6.366-.006-.25.394-.336.403-.341.035-.003-.272-.139-.47-.302-.44-.163.029-.696.131-1.185.225M9.256 124.74c.126.203-.461.266-1.359.146-1.306-.175-1.579-.096-1.579.459 0 .504-.208.605-.839.404-.618-.196-.758-.134-.532.232.191.309.148.4-.112.239-.638-.394-1.749.168-1.519.768.112.291.006.651-.235.8-.266.164-.328.091-.157-.185.462-.749-.328-.516-1.029.303-1.043 1.218-1.577 2.419-1.345 3.023.118.309.05.562-.151.562s-.343 1.466-.316 3.257c.052 3.441.316 5.097.805 5.058.85-.067 1.086.011 1.086.359 0 .211-.266.28-.592.155-.905-.347-.718.063.725 1.593 1.035 1.097 1.42 1.293 1.8.916.38-.377.422-.319.195.276-.201.528-.148.67.174.471.255-.158.462-.098.462.132s.341.418.757.418.822.195.901.432c.461 1.382 8.163.114 8.761-1.442.13-.341.416-.509.635-.373.219.135.412-.076.429-.469.017-.394.118-.498.226-.232.154.379.307.379.717 0 .287-.265.441-.616.343-.778-.099-.163.004-.297.229-.297.531 0 1.662-2.187 1.312-2.538-.148-.148-.076-.392.16-.543.236-.151.561-.697.722-1.213.167-.533.14-.843-.062-.718-.196.121-.385-.166-.42-.637-.051-.679.012-.735.309-.269.412.649.432-1.437.021-2.176-.121-.218-.223-.484-.227-.593-.044-1.166-1.225-3.549-1.674-3.377-.299.115-.444.047-.321-.151.322-.52-1.998-2.934-2.513-2.615-.238.147-.433.079-.433-.151 0-.23-.341-.418-.757-.418s-.831-.222-.923-.494c-.127-.379-.296-.386-.725-.033-.43.356-.734.333-1.324-.098-.85-.622-1.97-.761-1.625-.203m126.847-.099c-.142.141-.817.241-1.501.222-.684-.019-1.499.22-1.811.532-.312.312-.885.567-1.273.567-.389 0-1.032.434-1.43.964-.398.53-.867.875-1.043.766-.175-.108-.318.18-.318.64 0 .461-.179.726-.399.59-.397-.246-1.22 1.356-.941 1.833.08.138-.118.471-.442.739-.613.509-.833 1.379-.259 1.024.181-.111.329.056.329.372s-.122.575-.272.575c-.863 0-.128 4.548.811 5.023.869.44.889.497.185.53-.434.021-.566.127-.293.237.273.11.379.39.236.621-.144.232 0 .617.318.855.318.239.695.745.837 1.125.143.38.513.691.822.691.309 0 .658.25.776.555.117.305.758.675 1.424.821.666.146 1.211.427 1.211.624s.803.282 1.785.19c.982-.092 1.696-.022 1.587.154-.109.177.642.229 1.67.116 1.027-.112 1.927-.357 2-.543.072-.185.383-.338.691-.338.308 0 .559-.172.559-.382 0-.21.267-.28.593-.155.375.144.592-.006.592-.408 0-.349.241-.634.535-.634.637 0 2.624-2.3 2.624-3.038 0-.284.148-.516.329-.516.181 0 .362-.222.402-.493.276-1.847.318-2.914.129-3.241-.431-.746-.421-2.208.013-1.94.696.43-.044-1.901-.801-2.524-.365-.301-.444-.436-.175-.3.322.162.408.037.253-.366-.129-.337-.482-.613-.785-.613a.56.56 0 01-.55-.568c0-.914-2.101-2.953-3.167-3.073-.538-.06-1.202-.32-1.474-.577-.273-.257-.928-.389-1.456-.293-.528.096-1.071-.005-1.206-.224-.282-.457-.741-.514-1.115-.14m126.687.127c-.142.23-.431.311-.643.18-.212-.131-.678-.001-1.036.289-.464.377-.565.386-.354.034.408-.679.107-.621-1.518.291-.768.432-1.444.743-1.502.692-.058-.052-.545.332-1.083.852-.538.521-.768.829-.511.685.256-.144.564-.103.684.091.12.195-.356.469-1.058.611-1.004.202-1.15.338-.685.634.51.325.5.378-.072.383-.715.007-1.323 1.321-.916 1.98.137.221.013.491-.275.602-.584.224-.822 5.322-.249 5.322.18 0 .306.133.281.296-.026.163-.004.429.049.592.149.461.289 1.051.343 1.453.079.59 3.464 3.976 3.974 3.976.256 0 .374-.148.262-.329-.112-.181.063-.329.389-.329.325 0 .513.206.416.456-.281.733 1.349 1.59 1.768.93.27-.427.337-.429.342-.013.003.284.191.402.418.262.227-.14.685-.028 1.019.249.429.356.801.386 1.266.104.363-.22 1.148-.37 1.745-.333.597.036 1.086-.084 1.086-.268 0-.183.266-.334.592-.334.326 0 .593-.196.593-.437 0-.24.234-.347.521-.237.287.111.738-.144 1.001-.565.263-.421.637-.667.832-.546.576.356.912-.571.421-1.162-.364-.439-.295-.503.357-.333.595.156.902-.035 1.161-.722.409-1.084.198-1.655-.471-1.271-.268.153-.326.114-.137-.093.181-.197.536-.363.79-.368.253-.005.408-.316.344-.691-.063-.375.045-.682.24-.682.573 0 .449-4.687-.154-5.849-.303-.584-.687-1.032-.853-.996-.166.037-.375-.008-.466-.098-.09-.091.043-.165.296-.165.254 0 .461-.178.461-.395 0-.217-.218-.35-.484-.296-.266.054-.548-.322-.626-.835-.078-.514-.469-1.02-.87-1.125-.401-.105-.819-.423-.927-.707-.109-.284-.744-.636-1.41-.782-.666-.146-1.211-.451-1.211-.678 0-.25-.232-.219-.592.08-.326.27-.593.321-.593.114 0-.208-.222-.379-.493-.381-.272-.002-.879-.128-1.349-.28-.48-.154-.968-.092-1.113.142m126.604-.032c-.296.187-.896.246-1.334.132-.49-.128-.932.035-1.151.427-.195.349-.594.543-.886.431-.292-.112-.8.064-1.127.392-.328.328-.707.487-.841.352-.135-.134-.245.302-.245.969 0 1.009-.129 1.18-.77 1.012-.863-.226-2.543 2.04-2.196 2.961.11.295.013.403-.229.253-.254-.157-.374.032-.302.473.067.404-.035.984-.226 1.289-.248.396-.205.467.148.249.396-.245.397-.123.004.611-.392.733-.391.95.006 1.082.313.105.347.258.092.415-.221.137-.31.736-.197 1.33.12.624.383.971.624.823.255-.158.324-.016.177.366-.137.358 0 .717.321.84.335.128.459.479.309.871-.25.651.608 1.413 1.805 1.603.79.125 1.272 1.051.723 1.39-.287.178-.02.444.712.71.644.234 1.527.6 1.961.812 1.398.685 6.478.542 6.996-.197.155-.222.511-.414.789-.426 1.057-.049 2.286-.641 2.067-.995-.125-.204.05-.476.389-.607.34-.13.618-.478.618-.774 0-.296.235-.448.522-.337.697.267 1.682-1.814 1.044-2.208-.306-.189-.249-.353.178-.517 1.504-.577.633-8.311-1.169-10.374-.55-.629-.89-.846-.756-.482.192.524.066.616-.604.441-.6-.157-.724-.345-.426-.643.842-.842-.386-1.74-2.047-1.498-.423.061-.691-.156-.691-.56 0-.522-.289-.627-1.382-.499-.76.089-1.382.019-1.382-.154 0-.414-.845-.394-1.524.037M8.951 249.819c-.139.138-.788.237-1.443.218-.655-.018-1.19.132-1.19.335s-.356.368-.79.368c-.434 0-.79.189-.79.419 0 .23-.207.289-.462.132-.31-.192-.379-.07-.209.372.138.361.08.657-.131.657-.21 0-.382-.203-.382-.45 0-.248-.622.209-1.382 1.015-1.415 1.5-1.858 2.296-.781 1.402.503-.418.561-.393.353.149-.137.356-.541.662-.898.679-.404.02-.464.106-.159.229.376.152.358.331-.076.765-.565.565-.636 6.33-.101 8.254.121.435.233.934.25 1.109.016.176.235.193.486.038.284-.175.348-.108.171.179-.553.894 2.825 3.619 4.21 3.396.384-.062.691.137.691.446 0 .532 1.682.814 3.751.628a35.166 35.166 0 011.883-.097c.601-.014 1.004-.169.895-.345-.108-.176.516-.433 1.387-.572 1.142-.183 1.703-.515 2.011-1.191.234-.516.863-1.171 1.395-1.456.638-.341.905-.761.783-1.228-.102-.391-.043-.622.131-.515.425.263.865-.945.537-1.476-.153-.247-.072-.304.196-.138.266.164.456.039.456-.302 0-.32.119-.893.265-1.272.199-.519.126-.611-.296-.37-.454.26-.467.219-.067-.211.271-.293.49-.807.487-1.144-.005-.539-.051-.542-.389-.02-.21.326-.385.406-.388.178-.004-.228.191-.612.433-.854.703-.703.019-1.44-.771-.83-.459.354-.429.24.099-.379.415-.486.637-1.001.493-1.144-.143-.144-.261-.054-.261.199 0 .254-.186.461-.414.461-.275 0-.287-.227-.037-.674.274-.489.198-.823-.277-1.214-.449-.371-.468-.445-.061-.237.51.26.517.209.05-.366-.298-.367-.387-.679-.197-.693.189-.014-.067-.19-.57-.391-.537-.216-.799-.552-.636-.816.168-.272.066-.379-.258-.271-.295.098-.986-.286-1.536-.853-1.519-1.569-5.655-2.925-6.461-2.119m127.512.073c-.115.185-.925.266-1.801.178-.95-.095-1.592.008-1.592.256 0 .228-.266.414-.592.414-.326 0-.593.189-.593.419 0 .23-.191.299-.425.155-.488-.302-2.029 1.183-1.636 1.577.143.143-.054.14-.439-.008-.598-.23-.663-.105-.449.868.2.909.158 1.017-.208.543-.432-.561-.971-.125-.787.637.035.144-.174.412-.464.596-.391.248-.324.34.262.355.701.017.679.081-.197.566-.861.476-.991.825-1.018 2.731-.018 1.202.116 2.095.296 1.984.18-.112.327-.015.327.215 0 .23-.162.419-.36.419-.502 0-.261 1.306.274 1.484.24.081.328.43.194.778-.161.419-.087.535.219.346.309-.191.429.016.364.625-.076.696.125.942.854 1.046.723.103.819.219.398.478-.473.293-.474.418-.006.853.41.381.478.385.269.016-.337-.598-.035-.627.964-.092.412.22.655.648.539.949-.141.368.189.637 1.002.816.666.146 1.212.429 1.212.629s.355.364.79.364c.434 0 .792-.222.796-.494.004-.347.092-.362.296-.053.41.623 1.956 1.045 2.226.608.124-.201.806-.318 1.514-.261.709.057 1.407-.083 1.552-.312.145-.229.665-.478 1.155-.553 1.123-.171 4.111-3.14 3.417-3.394-.38-.14-.366-.305.059-.724.349-.343.449-.361.273-.049-.437.773.315.577.807-.211.762-1.219 1.111-3.398.484-3.02-.444.267-.448.213-.023-.311.362-.447.386-.711.08-.9-.242-.149-.292-.471-.113-.727.296-.424.326-.898.171-2.728a.812.812 0 00-.749-.723c-.408-.018-.49-.112-.201-.229 1.06-.428-.787-2.676-1.873-2.279-.465.171-.489.114-.111-.267.439-.443-.957-2.327-1.725-2.327-.119 0-.814-.283-1.544-.63-.73-.347-1.557-.548-1.837-.448-.279.1-.808.028-1.175-.161-.369-.189-.761-.191-.876-.004m126.416-.102c-.154.153-.855.297-1.558.319-.944.029-1.408.297-1.777 1.026-.356.703-.501.792-.506.309-.008-.986-1.1-.475-2.852 1.337-.806.832-1.371 1.513-1.256 1.513.116 0-.069.279-.41.621-.554.554-.802 1.387-.667 2.242a.25.25 0 01-.255.296c-.165 0-.312 1.155-.327 2.567-.015 1.456.144 2.566.367 2.566.216 0 .29.104.163.23-.605.605 2.061 4.912 3.032 4.898.233-.004.156-.195-.17-.425-.523-.371-.523-.401-.001-.258.325.089.591.495.592.903.001.497.425.863 1.285 1.11.706.203 1.283.538 1.283.744 0 .222.848.27 2.073.117 1.579-.196 1.932-.151 1.481.187-.468.351-.386.383.395.153.543-.16 1.476-.258 2.073-.218.597.041 1.086-.106 1.086-.327 0-.22.272-.401.605-.401.332 0 .71-.277.84-.615.13-.338.48-.521.778-.407.297.114.541-.034.541-.328 0-.295.311-.512.691-.482.38.031.691-.211.691-.537 0-.326.311-.72.691-.876.38-.156.713-.556.74-.888.054-.655.189-1.279.346-1.592.054-.109.136-.331.182-.494.046-.163.186-.563.312-.888.368-.956.096-4.835-.429-6.121a53.155 53.155 0 01-.657-1.678c-.095-.272-.336-.494-.534-.494-.199 0-.46-.378-.581-.841-.144-.548-.428-.761-.816-.612-.377.145-.689-.064-.849-.57-.151-.476-.478-.712-.81-.584-.306.117-.556.041-.556-.169 0-.211-.267-.383-.593-.383-.326 0-.592-.18-.592-.401 0-.22-.489-.383-1.086-.361-.597.022-1.446-.074-1.886-.214-.44-.14-.925-.128-1.079.026m126.515.118c-.296.188-.903.245-1.349.128-.573-.149-1.097.127-1.779.937-.531.632-.866.848-.744.479.182-.55.066-.614-.641-.352-.564.209-.892.696-.947 1.408-.046.598-.207 1.2-.359 1.338-.152.138-.178-.149-.057-.638.12-.488.057-.888-.139-.888-.197 0-.358.254-.358.566 0 .311-.372.683-.826.827-.57.181-.765.495-.629 1.015.108.413.035.652-.162.531-.324-.201-.524.348-.404 1.108.025.163-.151.296-.391.296-.274 0-.342.383-.182 1.021.15.595.103.925-.113.792-.5-.309-.369 1.863.135 2.229.259.187.24.292-.052.296-.602.008.014 2.795.741 3.352.291.223.468.701.394 1.062-.081.393.192.762.677.915.446.142.812.437.812.655 0 .678 1.155 1.589 1.637 1.291.287-.177.353-.111.174.177-.184.299.141.546.927.703.666.133 1.21.419 1.21.636 0 .216.301.15.668-.148.454-.369.574-.384.372-.049-.293.488.782.717 2.712.578l1.875-.131c.635-.043 1.086-.304 1.086-.629 0-.305.163-.455.361-.332.199.123.451 0 .561-.273.154-.38.208-.383.232-.011.023.369.259.381.986.05.644-.294.906-.688.805-1.211-.124-.646-.051-.695.436-.291.485.403.542.372.331-.178-.14-.365-.1-.636.09-.601 1.216.222 1.579-.271 2.056-2.795.39-2.057.279-8.305-.153-8.615-.206-.148-.43-.526-.498-.839-.179-.82-2.834-3.231-3.264-2.965-.2.124-.363.026-.363-.217s-.205-.315-.455-.16c-.25.154-.699-.053-.997-.461-.427-.583-.689-.65-1.23-.312-.516.322-.814.295-1.19-.108-.575-.616-1.223-.676-1.996-.186M8.559 375.006c-.396.103-.631.417-.523.7.135.351-.053.447-.596.305-.608-.159-.67-.286-.267-.541.411-.261.384-.336-.122-.341-.357-.003-.75.258-.873.58-.124.322-.475.49-.781.372-.306-.117-.846.076-1.2.43s-.643.528-.643.387c0-.419-2.2 1.91-2.718 2.877-.263.491-.378 1.055-.256 1.252a.432.432 0 01-.149.59c-1.239.765.171 9.846 1.586 10.216.443.116.902.58 1.02 1.03.194.744.406.887 1.164.785.138-.018.398.204.577.494.238.385 1.426.527 4.388.527 4.432 0 6.428-.353 5.992-1.059-.165-.266-.098-.335.166-.172.576.356 2.162-1.23 1.806-1.806-.15-.242-.104-.337.103-.209.592.366 1.359-.295 1.43-1.231.035-.47.192-.853.348-.853.584 0 .817-1.678.281-2.018-.417-.264-.382-.341.158-.346.965-.008.899-3.543-.067-3.591-.408-.02-.454-.1-.133-.23.271-.109.493-.461.493-.782 0-.32-.189-.465-.421-.322-.232.143-.38.02-.33-.273.161-.946-.504-2.705-1.022-2.705-.277 0-.624-.4-.77-.888-.254-.847-.281-.853-.573-.118-.266.669-.339.61-.549-.442-.157-.782-.539-1.291-1.075-1.431-.725-.19-.768-.132-.332.442.276.363-.025.19-.668-.384-.878-.784-1.534-1.023-2.63-.96-.802.046-1.369-.062-1.26-.239.211-.34-.351-.357-1.554-.046m126.711.343c-.341.341-.62.43-.62.197 0-.232-.356-.423-.79-.423-.435 0-.79.157-.79.349 0 .376-1.524.97-2.172.846-.217-.042-.262.057-.1.219s-.234.616-.88 1.009c-.798.485-1.097.918-.932 1.347.177.463.043.599-.502.505-.475-.082-.701.073-.625.428.066.305-.023.661-.197.789-1.079.795-1.894 4.396-.849 3.75.312-.193.347-.107.11.273-.524.841-.612 1.937-.154 1.937.265 0 .25.29-.042.837-.247.46-.275.73-.063.599.213-.131.498.471.638 1.35.14.873.517 1.688.839 1.812.322.123.586.478.586.787 0 .309.311.679.691.822.38.142.907.536 1.172.876.264.339.486.461.493.272.007-.19.277-.125.6.143.323.268.865.381 1.205.25.356-.136.515-.071.377.153-.133.215-.053.391.177.391.23 0 .421-.222.424-.494.005-.383.078-.379.329.015.326.514 5.587.632 5.589.125 0-.131.522-.257 1.158-.279 1.19-.042 3.705-2.004 3.335-2.602-.108-.175.09-.319.442-.319.351 0 .541-.158.422-.35-.119-.193.056-.577.39-.853.333-.277.511-.75.395-1.053-.132-.342-.041-.444.241-.269.308.19.382.007.23-.572-.122-.469-.091-.852.07-.852.357 0 .294-1.225-.095-1.855-.156-.253-.14-.549.037-.658.279-.172.323-1.113.137-2.916-.028-.272-.361-.496-.741-.5-.591-.005-.605-.061-.099-.389.395-.255.428-.384.099-.388-.272-.004-.473-.14-.447-.303.116-.737-.082-1.283-.465-1.283-.23 0-.291.222-.134.494.165.286.133.355-.076.164-.197-.181-.359-.468-.359-.639 0-.972-1.981-2.783-3.044-2.783-.632 0-1.047-.165-.922-.366.36-.583-1.342-.934-1.976-.408-.436.362-.574.364-.574.009 0-.256-.177-.356-.394-.222-.218.134-.395.056-.395-.174 0-.625-1.042-.505-1.749.202m126.809.056c-.423.423-.677.497-.677.198 0-.74-1.097-.568-1.975.31-.434.434-1.189.804-1.678.821-.488.017-.666.121-.395.23.811.327.559.866-.3.642-.622-.163-.89.068-1.236 1.062-.261.747-.556 1.087-.717.826-.373-.603-1.249 1.363-.953 2.137a.628.628 0 01-.364.82c-.506.195-.705 4.189-.264 5.308.043.109.057.331.031.494-.026.163.142.296.372.296s.319.159.199.354c-.12.194.046.861.369 1.48.324.62.592.95.596.732.005-.217.228.036.496.562.269.525.735 1.037 1.037 1.137.301.099.442.01.313-.199-.129-.21.016-.381.323-.381.306 0 .475.133.375.296a.326.326 0 00.116.461c.164.092.076.113-.195.047-.272-.067-.494.056-.494.271 0 1.062 6.153 2.058 6.764 1.094.267-.421.333-.423.338-.01.004.372.474.458 1.706.313 2.241-.264 3.038-.595 3.038-1.264 0-.302.366-.55.813-.55.447 0 .705-.175.572-.39-.134-.217.01-.294.323-.174.37.142.652-.136.822-.81.141-.565.43-.921.641-.79.211.13.396.004.412-.28.065-1.144.401-2.453.732-2.855.519-.63.259-5.581-.287-5.465-.248.052-.345-.17-.218-.499.125-.326.045-.813-.178-1.081-.223-.269-.465-.665-.538-.881-.073-.216-.378-.336-.679-.266-.334.076-.464-.093-.333-.434.118-.307.056-.809-.138-1.115-.249-.394-.354-.413-.358-.063-.004.325-.255.257-.733-.198-.4-.38-.639-.851-.532-1.048.108-.196.003-.238-.232-.092-.236.146-.541.084-.677-.137-.136-.22-.603-.401-1.038-.401-.434 0-.68-.178-.546-.395.135-.217-.121-.395-.569-.395-.447 0-.813.178-.813.395 0 .217-.188.395-.418.395-.23 0-.32-.159-.199-.353.221-.359-.633-.831-1.502-.831-.261 0-.78.304-1.152.676m127.782-.395c.151.245-.259.341-1.074.252-.725-.08-1.831.121-2.457.448-.625.326-1.36.594-1.631.596-.272.001-.494.269-.494.594 0 .326-.27.593-.6.593-.331 0-.82.486-1.086 1.08-.267.594-.803 1.4-1.191 1.791s-.599.882-.47 1.092c.129.209.028.38-.226.38-.298 0-.371.36-.205 1.02.155.618.106.928-.126.785-1.919-1.187.567 6.707 2.814 8.934 2.221 2.2 9.495 3.307 11.112 1.691.435-.435.64-.482.64-.146 0 .272.533-.103 1.184-.833.652-.729 1.185-1.106 1.185-.837 0 .269.181.377.401.241.221-.136.299-.413.174-.616-.125-.202.031-.367.347-.367.729 0 1.163-1.071.537-1.326-.282-.114-.22-.204.153-.222.761-.038.781-.134.96-4.561.079-1.951-.029-3.751-.241-4.006-.211-.255-.334-.704-.272-.999.062-.294-.131-.483-.429-.42-.355.075-.458-.106-.298-.523.348-.906-.875-2.104-1.362-1.334-.256.405-.354.254-.359-.552-.003-.637-.174-1.005-.401-.865-.217.135-.395.056-.395-.174 0-.23-.133-.389-.296-.353-.659.144-2.447-.568-2.246-.894.119-.193-.193-.326-.694-.297-.5.029-1.425-.087-2.055-.258-.74-.201-1.058-.171-.899.086" fill="#fff" fill-rule="evenodd"/></svg>