<svg xmlns="http://www.w3.org/2000/svg" width="400" height="389.189"><g fill-rule="evenodd"><path d="M6.719.299c-.482.079-.877.308-.877.507s-.263.362-.584.362c-.321 0-.935.351-1.363.779-.429.429-.779.666-.779.528 0-.139-.438.221-.974.799-.535.578-.974 1.269-.974 1.537 0 .267-.219.705-.486.973C-.496 6.961.171 14.8 1.449 14.8c.274 0 .498.253.498.563 0 .309.35.806.777 1.106.427.299.646.687.487.863-.16.176-.091.206.153.067.243-.139.659.008.924.327s.81.58 1.212.58c.403 0 .732.157.732.35 0 .756 6.665.418 7.523-.381.442-.412 1.12-.748 1.508-.748.388 0 .706-.164.706-.363 0-.2.35-.475.778-.611.428-.135.885-.673 1.016-1.194.131-.522.394-.948.585-.948.191 0 .347-.34.347-.756s.16-.855.356-.976c.457-.282.202-6.879-.278-7.188-.199-.128-.489-.64-.645-1.137-.167-.537-.495-.823-.804-.705-.35.135-.475-.047-.379-.548.083-.428-.054-.71-.318-.659-.255.049-.415-.142-.356-.426.058-.284-.052-.418-.246-.298s-.999-.22-1.789-.756C12.828.006 9.996-.243 6.719.299m125.243.793c-2.076.994-4.904 3.928-4.334 4.498.119.118-.061.491-.399.829-.337.338-.518.864-.401 1.169.117.304.071.781-.103 1.059-.476.763-.517 1.516-.067 1.238.253-.156.296.073.119.631-.189.597-.141.792.153.61.237-.146.431-.081.431.146 0 .227-.171.413-.381.413-.232 0-.207.381.063.973.244.536.59.974.77.974.18 0 .327.263.327.584 0 .321.17.584.377.584.208 0 .277.263.154.585-.204.529.256.776 1.153.62.177-.03.232.089.124.265-.309.499.255 1.165 1.113 1.315.429.075.993.399 1.254.721.261.321.48.457.487.301.006-.155.494-.089 1.083.147 3.268 1.308 7.959-.148 10.407-3.23 1.363-1.715 2.97-5.707 2.076-5.155-.341.211-.154-1.499.232-2.124.115-.186-.138-.709-.561-1.163-.423-.455-.733-.963-.688-1.13.156-.585-.519-2.057-.944-2.057-.235 0-.311-.117-.169-.259.263-.263-2.418-2.856-2.953-2.857-.585 0-.888-.083-1.498-.41-.382-.204-.795-.159-1.071.117-.339.339-.449.334-.449-.019 0-.905-3.919-.517-6.305.625M259.299.476c-.589.202-1.071.624-1.071.937 0 .325-.291.52-.682.454-.451-.076-.723.175-.803.744-.068.471-.462.965-.877 1.097s-.754.413-.754.626c0 .212-.138.301-.306.197-.168-.104-.332.104-.364.464-.102 1.149-.749 3.813-1.041 4.285-.155.252-.133.457.05.457.184 0 .377.657.43 1.461.053.803.264 1.519.469 1.59.205.071.372.519.372.995 0 1.259 3.123 4.419 4.674 4.729.107.021.88.24 1.716.486.837.246 1.637.376 1.777.289.14-.086 1.194-.2 2.342-.252 1.446-.066 2.273-.312 2.692-.802.332-.388.926-.706 1.32-.706.447 0 .61-.171.434-.456-.191-.309-.067-.373.386-.199.368.141.571.098.451-.095-.119-.194-.033-.414.192-.489.225-.075.438-.516.473-.98.035-.464.183-.77.328-.68.363.225 1.026-.671 1.025-1.386 0-.321.208-1.337.463-2.258s.373-1.973.262-2.337c-.11-.364-.301-1.276-.424-2.026-.123-.75-.524-1.592-.891-1.872-.366-.279-.615-.761-.552-1.071.063-.309-.156-.562-.487-.562-.331 0-.601-.247-.601-.55 0-1.728-7.765-3.203-11.003-2.09m126.29.536c-.964.533-1.819 1.161-1.9 1.396-.093.268.051.307.389.103.453-.273.455-.222.013.323-.288.356-.639.61-.779.565-.486-.157-2.09 1.215-1.859 1.589.128.207-.013.581-.314.83-1.052.873-.455 9.023.613 8.362.182-.112.332.156.332.597 0 .441.185.802.412.802.227 0 .304.176.172.39-.132.214-.031.389.226.389s.671.28.921.621c.25.341.909.648 1.466.682.557.033.944.172.86.307-.505.818 4.152 1.478 6.848.971 1.208-.228 3.719-1.642 4.58-2.581 1.089-1.187 2.676-4.092 2.01-3.68-.34.21-.377.137-.126-.252.625-.97.513-5.921-.151-6.683-.327-.377-.494-.786-.371-.909.288-.288-1.128-1.718-1.699-1.718-.237 0-.33-.263-.207-.584.138-.36-.001-.585-.36-.585-.321 0-.689-.273-.817-.606-.128-.334-.462-.519-.742-.412-.279.108-.571.009-.647-.219-.321-.965-6.99-.738-8.87.302M8.569 123.487c-.964.149-1.862.208-1.996.132-.134-.076-.713.297-1.286.828-.574.532-1.253.972-1.51.979-.63.017-1.83.955-1.83 1.431 0 .211-.353.703-.784 1.093-.466.422-.697.987-.568 1.391.118.375.027.798-.204.94-.739.457-.394 5.929.441 6.991.399.508.726 1.033.726 1.167 0 .134.5.732 1.111 1.33 1.237 1.209 4.567 3.08 4.1 2.304-.18-.3-.014-.265.421.089.853.693 4.075.899 4.79.306.276-.23.61-.31.741-.179.131.132.724-.106 1.317-.528.592-.422 1.269-.768 1.504-.768.235 0 .427-.259.427-.575 0-.316.431-.858.958-1.203.528-.346 1.074-1.007 1.215-1.47.141-.463.52-1.143.844-1.511 1.068-1.217.507-6.942-.81-8.259-.579-.579-.952-1.217-.828-1.418.123-.2-.048-.364-.382-.364s-.608-.175-.608-.39c0-.214-.254-.389-.565-.389-.31 0-.705-.22-.876-.489-.699-1.098-3.88-1.818-6.348-1.438m126.463.102c.119.193-.145.236-.587.095-.7-.222-2.216.309-2.799.98-.108.123-.75.547-1.428.941-1.242.722-2.073 2.011-2.084 3.235-.005.547-.067.566-.358.106-.36-.568-1.076 1.911-.865 2.992.052.267-.059.487-.247.487s-.341.255-.341.567c0 .312.109.499.243.417.133-.083.272.579.307 1.472.036.892.248 1.683.471 1.757.224.075.407.43.407.789 0 .804 3.066 4.032 3.547 3.735.191-.118.348-.021.348.215s.219.394.486.352c.268-.043 1.098.196 1.845.531.932.419 1.573.494 2.045.242.438-.235.687-.23.687.013 0 .21.394.288.876.174a18.85 18.85 0 011.55-.295c.371-.048.794-.207.941-.354.148-.147.558-.268.913-.268.735 0 4.162-3.524 4.668-4.801.81-2.041.919-2.49.963-3.962.026-.857-.09-1.656-.257-1.775-.167-.12-.368-.766-.446-1.437-.083-.711-.652-1.729-1.365-2.442-.672-.672-1.222-1.363-1.222-1.534 0-.172-.526-.53-1.168-.797-.643-.266-1.169-.644-1.169-.84 0-.195-.35-.168-.779.061-.622.333-.779.297-.779-.181 0-.329-.131-.57-.292-.536-.161.034-.622-.081-1.025-.256-.447-.194-1.034-.13-1.501.162-.423.264-.659.302-.525.085.137-.221-.092-.37-.516-.338-.418.032-.663.215-.544.408m126.701-.063c0 .168-.245.211-.545.096-.299-.115-.655-.029-.791.19-.136.22-.504.301-.818.18-.357-.137-.572.016-.572.406 0 .419-.345.626-1.039.626-.571 0-.93.109-.797.241.295.296-.676 1.317-1.252 1.317-.23 0-.418.263-.418.585 0 .321-.168.584-.373.584-.486 0-2.075 5.131-1.68 5.424.165.123.315.53.333.905.102 2.142.217 2.628.747 3.157.321.322.585.729.586.905.007 1.283 4.921 4.783 5.882 4.189.191-.119.348-.074.348.1 0 .173.438.315.973.315.536 0 .974-.167.974-.37 0-.204.202-.168.449.079.309.309.674.329 1.169.064.395-.212.719-.299.719-.194 0 .106.695-.054 1.544-.353 1.706-.602 4.298-2.757 4.298-3.573 0-.287.169-.522.376-.522.477 0 1.091-1.136 1.331-2.465.103-.565.289-1.193.415-1.396.125-.203.041-.485-.187-.626-.292-.18-.289-.407.01-.768.286-.344.293-.555.022-.646-.221-.075-.469-.661-.551-1.304-.196-1.539-1.812-4.479-2.462-4.479-.281 0-.512-.186-.512-.413 0-.227-.175-.304-.389-.171-.214.132-.391.098-.392-.075-.003-.416-2.239-1.678-2.973-1.678-.317 0-.484-.149-.371-.332.113-.182-.753-.325-1.924-.317-1.172.007-2.13.151-2.13.319m125.414.135c-.267.321-.733.584-1.035.584-.937 0-4.89 3.892-5.055 4.978-.057.368-.25 1.371-.431 2.228-.542 2.566.524 6.792 1.555 6.168.161-.098.292.175.292.605 0 .431.238.923.528 1.095.29.171.729.695.975 1.165.293.558.72.801 1.236.702.433-.084.701-.012.594.16-.106.172.284.532.866.8 1.386.639 5.149.913 5.149.375 0-.223.183-.292.406-.154.224.138.662.039.974-.22.312-.258.567-.34.567-.18 0 .159.235.095.523-.144.287-.238.634-.322.77-.186.136.135.357-.041.492-.393.136-.352.49-.64.789-.64.298 0 .542-.274.542-.608 0-.333.156-.511.345-.393.19.117.562-.048.827-.367.265-.319.329-.586.142-.593-.187-.007.062-.348.554-.758 1.038-.866 1.782-7.032.912-7.569-.243-.151-.443-.626-.443-1.057 0-.779-2.254-3.825-2.84-3.838-.17-.004-.686-.359-1.147-.788-.464-.432-1.132-.688-1.495-.573-.404.128-.758-.055-.919-.474-.209-.543-.328-.575-.587-.156-.195.316-.529.4-.835.21-.665-.41-2.394-.404-3.065.011-.354.218-.436.178-.249-.124.408-.661-.37-.549-.937.134M8.569 246.91c0 .167-.395.229-.878.137-1.759-.337-5.848 2.718-6.885 5.144-1.078 2.521-.779 9.153.413 9.153.212 0 .258.205.103.455-.191.31-.066.374.387.2.419-.161.574-.104.415.153-.274.444.873 1.918 1.493 1.918.21 0 .708.377 1.108.839.4.461.728.623.728.361 0-.294.391-.17 1.019.324 1.011.795 1.961.76 1.459-.053-.158-.254-.08-.311.194-.141.251.155.362.435.246.621-.324.525 4.276.126 5.293-.459a12.455 12.455 0 001.672-1.195c.424-.373 1.09-.779 1.48-.903.391-.124.711-.574.711-1.001 0-.427.177-.666.394-.532.219.135.501-.29.634-.959.133-.661.393-1.297.58-1.412.646-.399.385-5.184-.342-6.295-.375-.572-.682-1.318-.682-1.659 0-1.235-3.946-4.255-4.687-3.587-.168.153-.188.071-.044-.182.156-.272-.087-.57-.597-.732-1.286-.408-4.214-.543-4.214-.195m125.129.313c-.103.266-.323.4-.49.297-.166-.103-.797.202-1.401.677-.604.475-.949.604-.767.287.182-.318-.089-.143-.603.389-.513.531-.89 1.101-.836 1.266.053.164-.088.255-.315.202-.502-.119-2.414 3.126-2.121 3.6.115.186.028.45-.193.587-.221.136-.309.399-.195.584a.408.408 0 01-.147.555c-.465.287.155 3.067 1.139 5.118.419.871.761 1.791.761 2.045 0 .443.478.612 1.413.501.242-.029.532.3.645.731.112.431.44.855.728.942.289.088.875.296 1.303.462.429.166 1.062.333 1.407.371.345.038 1.09.185 1.655.327.631.158 1.028.097 1.028-.158 0-.271.222-.292.637-.06.764.427 3.304-.241 3.768-.992.174-.281.458-.423.631-.316.443.273 3.206-2.488 2.932-2.93-.123-.201.049-.364.383-.364.536 0 .632-.157.599-.978-.004-.109.258-.713.583-1.341.379-.734.449-1.23.196-1.386-.217-.134-.263-.451-.102-.704.459-.721.372-1.967-.176-2.536-.275-.285-.403-.676-.284-.868.225-.364-.409-1.775-1.147-2.55-.234-.246-.676-.81-.983-1.253-.307-.443-.701-.717-.876-.609-.176.108-.319-.069-.319-.393 0-.374-.532-.686-1.46-.854-.804-.145-1.941-.507-2.528-.804-1.195-.605-1.358-.609-2.388-.058-.478.256-.646.257-.489.003.137-.223-.194-.363-.781-.331-.562.031-1.105.274-1.207.541m128.729-.465c-.118.118-.629.266-1.136.328-1.366.169-3.453 1.04-3.453 1.443 0 .193-.224.351-.498.351s-.756.374-1.071.831a11.785 11.785 0 01-1.218 1.461c-.355.346-.732 1.155-.838 1.798a13.63 13.63 0 01-.625 2.278c-.472 1.207.782 6.485 1.54 6.485.206 0 .373.169.373.376 0 .668 2.157 2.605 2.699 2.425.316-.105.417 0 .254.265-.238.384.764.652 1.819.486.16-.026.294.26.298.635.003.385.13.512.292.292.33-.449 1.089-.466 2.316-.052.49.165 1.224.096 1.702-.16.546-.292.751-.304.584-.033-.475.768 3.068-1.051 4.544-2.333 1.554-1.351 3.019-3.779 3.019-5.006 0-.409.178-.854.396-.988.218-.135.277-.438.131-.673-.145-.235-.306-1.21-.358-2.166-.051-.956-.3-1.867-.554-2.023-.253-.157-.445-.397-.427-.533.107-.802-.018-1.042-.416-.796-.272.168-.345.107-.184-.152.234-.378-2.147-2.946-2.813-3.035-.331-.043-1.506-.499-3.039-1.176-1.455-.643-1.825-.681-1.499-.153.132.214-.033.389-.367.389-.334 0-.607-.175-.607-.389 0-.42-.514-.524-.864-.175m125.707.268c-.328.184-.597.224-.597.089s-.57.106-1.266.537c-.697.43-1.441.834-1.656.898-.743.22-2.114 1.618-1.911 1.947.113.182-.079.331-.426.331-.346 0-.534.155-.416.345.117.19-.056.569-.385.841-.328.273-.507.731-.397 1.018.11.287.06.522-.112.522-.347 0-.404.435-.444 3.406-.015 1.124.148 2.371.363 2.773.215.401.3.819.19.929-.405.406 4.112 4.664 4.706 4.436.322-.123.585-.072.585.115 0 .186.552.531 1.227.766 1.529.534 1.61.532 1.268-.022-.189-.305-.105-.342.262-.115.819.506 2.045.519 2.673.029.447-.348.501-.318.263.147-.164.321-.034.259.289-.137.323-.396.766-.61.984-.476.99.612 5.861-3.158 5.285-4.09-.175-.284-.137-.382.095-.239.607.375 1.335-2.626 1.235-5.094-.094-2.33-.763-4.174-1.338-3.688-.186.158-.115-.006.157-.363.418-.549.371-.687-.311-.904-.443-.14-.705-.418-.582-.617s.082-.362-.092-.363c-.173-.001-.84-.483-1.483-1.071-2.109-1.93-6.379-2.949-8.166-1.95M7.68 370.249c-.096.096-.592.255-1.102.353-.51.099-.987.356-1.059.572-.072.217-.385.394-.695.394-.31 0-.665.263-.788.584-.124.321-.462.584-.753.584-.641 0-1.419 1.333-1.03 1.764.153.17.095.204-.129.077-1.498-.849-2.991 7.327-1.603 8.77.259.269.467.744.462 1.056-.011.68 3.274 3.912 3.976 3.912.272 0 .494.165.494.366 0 .201.306.379.681.396.375.018 1.996.116 3.603.218 2.817.18 5.063-.275 5.063-1.027 0-.188.282-.342.626-.342.421 0 .546-.21.381-.639-.215-.559-.161-.571.422-.098.37.301.545.337.392.082-.151-.253.037-.691.419-.974.987-.729 2.12-2.608 1.843-3.056-.128-.208-.041-.378.194-.378.486 0 .434-5.384-.054-5.686-.162-.1-.202-.421-.089-.714.312-.814-4.122-5.319-5.302-5.386-.536-.031-1.064-.184-1.175-.34-.227-.321-4.508-.757-4.777-.488m127.179.065c-.911.071-1.655.306-1.655.52 0 .215-.168.287-.372.161-.727-.45-5.56 4.172-5.238 5.009.105.276-.068.718-.387.983-.318.264-.482.732-.363 1.041.118.308.03.783-.196 1.055a.896.896 0 00-.069 1.048c.188.304.255.692.149.863-.105.171.015.311.268.311.352 0 .353.129.005.549-.312.376-.327.63-.048.802.224.139.408.551.408.915 0 .365.428 1.124.951 1.688.523.564.829 1.16.681 1.324-.147.165-.055.177.206.027.275-.158.684.071.973.544.898 1.468 2.943 2.14 6.342 2.085 3.446-.055 4.931-.213 4.651-.492-.102-.102.344-.407.99-.679.646-.272 1.175-.679 1.175-.906 0-.226.482-.952 1.071-1.613s1.071-1.346 1.071-1.522c0-.176.132-.452.292-.613.161-.16.292-.623.292-1.029 0-.458.171-.631.45-.459.307.19.343.105.112-.268-.53-.858-.562-2.838-.051-3.163.351-.223.345-.296-.024-.3-.267-.003-.487-.347-.487-.763 0-1.732-3.132-5.701-4.181-5.299-.293.113-.438.051-.321-.138.656-1.061-2.98-1.974-6.695-1.681m126.744-.044c-.062.061-.452.177-.867.257-1.362.261-2.119.725-1.862 1.142.14.226.068.294-.161.152-.548-.338-1.709.12-1.434.566.119.192.018.349-.224.349-.709 0-1.628 1.122-1.323 1.615.153.249.121.357-.073.239s-.578.03-.854.329c-.277.299-.417.544-.312.544.104 0-.042.569-.326 1.265-.283.697-.465 1.572-.404 1.946.061.374-.05.78-.247.901-.196.122-.094.485.229.808.43.43.483.78.199 1.311-.286.533-.23.883.209 1.322.328.329.573.699.543.823-.141.588.962 2.529 1.437 2.529.295 0 .537.257.537.571 0 .313.394.778.876 1.032.482.253.98.619 1.107.813.386.588 6.235.825 8.084.327 3.043-.82 7.11-5.777 6.092-7.425-.132-.213.024-.488.347-.612.447-.171.501-.45.228-1.167-.306-.807-.64-2.531-.841-4.344-.03-.265-.638-1.015-1.352-1.664-.714-.65-1.299-1.382-1.299-1.627 0-.244-.118-.326-.263-.181-.145.144-.632-.084-1.083-.507-.743-.698-1.713-.92-5.771-1.319-.595-.059-1.131-.056-1.192.005m128.208-.072c-.073.07-.784.23-1.581.355-2.275.358-2.371.391-3.186 1.112-.424.375-.923.682-1.109.682-.187 0-.244.154-.127.343.116.189-.382.75-1.108 1.247-1.744 1.195-3.546 10.209-1.829 9.148.19-.118.338.003.328.269-.047 1.311.173 1.814.89 2.042.439.139.668.438.521.677-.174.281-.024.335.439.158.604-.232.631-.184.192.345-.425.512-.418.595.043.496.322-.07.498.124.423.465-.072.321.001.453.161.292.161-.16 1.008.116 1.883.614 2.766 1.574 9.575 1.127 9.575-.629 0-.178.161-.224.358-.102.197.122.615-.035.928-.348.313-.313.705-.446.872-.296.167.151.192.078.056-.161s.098-.748.522-1.131c.423-.384.77-.943.77-1.244 0-.301.155-.451.344-.334 1.018.629.899-7.384-.132-8.957-1.091-1.666-1.917-2.505-2.464-2.505-.287 0-.424-.157-.305-.349.211-.342-.863-1.002-1.436-.881-.16.034-.292-.124-.292-.351 0-.227-.175-.304-.389-.172-.214.133-.39.049-.39-.185 0-.304-.237-.299-.826.016-.58.311-.747.315-.561.014.146-.236.123-.441-.05-.456a42.431 42.431 0 01-1.352-.164c-.57-.076-1.096-.08-1.168-.01" fill="#0c2d62"/><path d="M131.669.543c-.737.267-1.416.713-1.509.993-.093.28-.016.43.171.333.188-.097.91-.421 1.607-.719.929-.398 1.922-1.35 1.168-1.12-.053.016-.7.247-1.437.513M267.34.578c.834.324 1.754.786 2.045 1.027.391.325.527.323.527-.009 0-.472-1.281-1.065-3.035-1.404-.661-.128-.488.016.463.386M3.954 1.117c-.461.4-.838.926-.838 1.168 0 .243.35.091.779-.338.428-.428 1.042-.779 1.363-.779.321 0 .584-.175.584-.389 0-.625-.979-.45-1.888.338M14.171.899c1.615 1.021 2.957 2.307 2.752 2.637-.118.193.049.248.372.124.403-.154.668.092.842.784.211.843.948 1.469.948.806 0-.522-2.103-3.303-2.497-3.303-.245 0-.746-.35-1.113-.779C15.108.74 14.5.4 14.123.412c-.63.021-.626.061.048.487M384.907.647c-.538.218-.669.911-.171.911.173 0 .655-.257 1.071-.572.769-.581.217-.789-.9-.339m-242.008 1.32c.716.653 1.405 1.084 1.532.956.261-.26-1.867-2.108-2.454-2.13-.208-.008.207.521.922 1.174m114.431-.939c-.312.311.04.919.531.919.202 0 .367-.262.367-.584 0-.602-.46-.774-.898-.335M1.952 2.718c-.336.628-.303.728.181.542.326-.125.593-.472.593-.77 0-.761-.291-.675-.774.228m126.726.186c-.454.519-.938 1.26-1.076 1.648-.268.755 1.004-.659 1.731-1.923.537-.933.325-.844-.655.275m126.937-.275c-.138.375-.44.807-.669.96-.23.152-.433.415-.452.584-.018.168-.171.62-.34 1.004-.169.385-.221.785-.116.889.104.105.408-.335.674-.977.266-.643.815-1.274 1.221-1.402.405-.129.737-.573.737-.987 0-.939-.717-.987-1.055-.071m126.708.278c-.834 1.274-.797 1.65.084.853.393-.355.806-.554.919-.441.112.113.449-.096.747-.463.359-.442.378-.57.056-.376-.268.161-.487.107-.487-.12 0-.722-.669-.445-1.319.547m14.838-.717c-.422.421-.331.926.167.926.244 0 .677.307.961.681.285.375.519.507.522.293.006-.639-1.35-2.2-1.65-1.9M144.623 4.075c.613.613.815 1.158.697 1.877-.028.167.302.682.732 1.144.663.711.783.74.783.183 0-.362-.144-.658-.32-.658-.177 0-.484-.655-.682-1.456-.237-.958-.618-1.506-1.112-1.6-.704-.135-.71-.102-.098.51m126.665-.2c-.126.204.109.551.523.773.642.343.722.29.549-.37-.216-.826-.699-1.007-1.072-.403M.887 4.382c-.716.926-.973 2.017-.354 1.503.303-.252.641-.803.752-1.224.232-.888.129-.96-.398-.279m379.73 1.376c-1.246 2.64-.001 9.716 1.769 10.057.273.052.317.006.097-.103-.22-.108-.399-.544-.399-.967 0-.423-.15-.677-.332-.565-1.096.678-1.639-7.205-.579-8.396.315-.354.426-.733.248-.844-.178-.11-.54.258-.804.818m18.215-.742c0 .188.249.548.553.801.454.377.516.315.344-.342-.205-.783-.897-1.137-.897-.459M19.301 9.178c.044 1.813-.074 3.392-.263 3.509-.188.117-.343.552-.343.968 0 .416-.155.756-.344.756-.189 0-.436.351-.548.779-.324 1.239.436.49 1.285-1.266.805-1.667 1.138-7.422.454-7.845-.177-.109-.286 1.285-.241 3.099m253.603-2.07c.211 1.351.394 1.71.711 1.393.292-.292-.244-2.659-.601-2.659-.169 0-.218.57-.11 1.266m-19.733.974c.004 1.086.102 1.311.383.876.496-.767.496-2.337 0-2.337-.214 0-.387.657-.383 1.461m-126.978.12c0 .441.175.694.389.561.214-.132.39-.493.39-.802 0-.308-.176-.561-.39-.561-.214 0-.389.361-.389.802m20.214.269c-.224 1.684-.187 4.327.059 4.175.317-.196.457-4.467.147-4.467-.092 0-.185.132-.206.292m126.54 2.637c-.532 1.912-.374 3.186.266 2.15.306-.494.764-4.3.518-4.3-.102 0-.454.968-.784 2.15m-146.68-.565c-.06.799.091 1.142.504 1.142.325 0 .59-.186.59-.413 0-.227-.194-.292-.431-.146-.287.178-.347.002-.179-.528.139-.438.106-.886-.072-.996-.179-.11-.364.313-.412.941m126.898.29c0 2.592 3.762 7.871 5.602 7.86.239-.002-.013-.308-.56-.682-1.739-1.187-3.485-3.296-3.485-4.21 0-.486-.167-.942-.372-1.013-.205-.071-.416-.787-.469-1.59-.112-1.69-.716-1.998-.716-.365m-126.556 1.364c-.015.175.184.701.441 1.168.258.468.508 1.086.555 1.374.138.828.51 1.021 1.009.522.355-.355.353-.461-.006-.461-.257 0-.468-.263-.468-.584 0-.321-.148-.584-.33-.584-.181 0-.52-.394-.752-.876-.233-.482-.435-.734-.449-.559m18.746 1.902c-.257.257-.467.601-.467.765 0 .655-3.309 3.422-4.372 3.656-.625.137-1.048.338-.94.446.821.821 4.78-2.008 5.934-4.239.615-1.188.573-1.355-.155-.628m126.696.318c-.135.218-.413.293-.617.166-.205-.126-.347-.086-.317.091.171.981-.126 1.66-.821 1.881-.431.137-.679.42-.55.629.245.395 2.893-2.168 2.893-2.801 0-.476-.283-.46-.588.034m126.077 1.169c-1.341 1.615-1.405 2.102-.105.802.688-.688 1.764-2.376 1.504-2.36-.061.004-.691.705-1.399 1.558M.779 14.938c0 .323 1.942 2.199 2.277 2.199.201 0 .458.241.571.536.246.639 2.605 1.547 2.605 1.002 0-.203-.273-.369-.607-.369-.81 0-3.678-2.329-3.678-2.987 0-.285-.262-.519-.584-.519-.321 0-.584.062-.584.138m128.354 1.831c.844.933.92.938.853.056-.029-.39-.383-.727-.796-.758-.711-.054-.714-.024-.057.702m-112.895.155c-.332.332-.835.608-1.118.615-.561.014-1.878.908-1.878 1.276 0 .126.482.056 1.072-.156 1.249-.45 3.026-1.839 2.73-2.134-.112-.112-.475.067-.806.399m366.627-.274c.005.494 2.462 1.98 3.698 2.237 1.131.234 1.14.225.28-.287-.489-.291-.81-.608-.715-.704.096-.096-.283-.202-.842-.235-.56-.034-1.221-.341-1.471-.682-.479-.655-.954-.819-.95-.329m-252.024 1.43c.284.342 1.195.731 2.024.863.829.133 1.507.394 1.507.581 0 .567 4.175.407 4.396-.169.152-.396-.226-.455-1.693-.267-1.039.133-2.141.101-2.449-.071-.308-.173-.944-.373-1.413-.444-.469-.072-.97-.292-1.113-.491-.143-.198-.601-.42-1.018-.492-.653-.114-.687-.047-.241.49m137.303-.138c-.142.229-.177.496-.079.594.272.271 1.458-.267 1.458-.661 0-.488-1.069-.436-1.379.067m126.695.197c-.589.32-1.071.658-1.071.751 0 .249 1.244-.243 2.132-.844 1.034-.699.277-.633-1.061.093m-383.293.825c-.148.148-1.16.221-2.25.164-1.341-.072-1.896.03-1.72.315.336.545 3.983.549 4.319.005.306-.494.035-.869-.349-.484m249.798.594c0 .168.964.306 2.142.306 1.19 0 2.142-.176 2.142-.396 0-.23-.893-.358-2.142-.306-1.178.05-2.142.228-2.142.396m126.813-.026c.292.473 3.958.412 4.256-.071.162-.262-.57-.377-2.106-.331-1.296.039-2.263.22-2.15.402M5.842 123.361c-.321.122-.709.415-.862.651-.153.235-.416.428-.584.429-.641.001-2.838 1.83-2.838 2.363 0 .306-.157.557-.348.557-.552 0-.832 1.116-.354 1.411.252.156.324.091.172-.155a.496.496 0 01.158-.682c.231-.143.578-.676.772-1.185.196-.516.804-1.038 1.374-1.182.562-.141 1.467-.668 2.01-1.172.543-.503 1.097-.853 1.231-.777.134.076 1.032.007 1.996-.153l1.752-.292-1.947-.018c-1.071-.009-2.21.082-2.532.205m6.037.084c.429.172.911.237 1.071.144.161-.093.292.017.292.244 0 .227.263.412.585.412.321 0 .584-.154.584-.344 0-.393-1.379-.824-2.532-.791l-.779.022.779.313m119.841.587c-.922.505-1.506 1.024-1.297 1.154.21.129.621.014.914-.255 1.049-.965 2.317-1.498 3.027-1.273.397.126.812.084.922-.095.441-.714-1.99-.394-3.566.469m6.712-.613c.153.247.441.349.641.226.199-.124.362.055.362.396 0 .501.152.54.779.204.429-.229.779-.263.779-.076 0 .188.438.54.974.784.622.284.974.302.974.051 0-.217-.307-.507-.682-.645-.375-.138-.77-.38-.877-.536-.351-.511-3.262-.91-2.95-.404m121.062-.067c-.482.093-.877.414-.877.713 0 .307-.238.454-.544.336-.3-.115-.661-.022-.802.207-.157.254.131.416.739.416.656 0 .997-.214.997-.626 0-.39.215-.543.572-.406.314.121.682.04.818-.18.136-.219.492-.305.791-.19.3.115.545.04.545-.168 0-.381-.639-.41-2.239-.102m5.956.142c.123.199.462.362.754.362.698 0 2.924 1.276 2.927 1.678.001.173.178.207.392.075.535-.331.491-.974-.067-.974-.251 0-.752-.268-1.114-.596-.724-.654-3.254-1.131-2.892-.545m120.821-.149c-.375.098-.682.341-.682.539 0 .568 1.023.422 1.558-.223.49-.591.358-.638-.876-.316m6.565.284c.147.383.509.556.903.431.361-.115 1.011.122 1.444.525.433.403 1.171.855 1.639 1.004.469.149.768.408.664.575-.104.168.244.712.773 1.209.529.496.962 1.3.962 1.786 0 .485.182.995.405 1.133.581.359.045-1.689-.82-3.131-.712-1.188-2.746-2.916-3.432-2.916a.577.577 0 01-.502-.36c-.072-.199-.614-.481-1.206-.628-.894-.222-1.034-.159-.83.372M14.8 124.671c0 .235.351.518.779.63.429.112.779.359.779.548 0 .189.274.344.608.344.334 0 .512.152.397.339-.245.396 1.235 2.224 1.548 1.912.116-.116-.06-.482-.392-.814-.331-.331-.603-.77-.603-.974 0-.363-2.459-2.411-2.895-2.411-.121 0-.221.192-.221.426m368.546.656c-.698.583-1.268 1.313-1.266 1.621.003.419.187.369.73-.195.4-.415 1.101-1.013 1.558-1.328.82-.565 1.108-1.19.539-1.169-.16.006-.863.488-1.561 1.071m-127.283.659c-.475.358-.565.576-.242.584.283.007.778-.251 1.099-.572.751-.751.131-.76-.857-.012m13.849-.183c0 .215.229.39.508.39.575 0 2.736 3.763 2.438 4.245-.107.173.071.646.396 1.053.55.689.574.654.345-.531-.531-2.755-3.687-7.169-3.687-5.157m-125.983.941c.605.924 1.744 1.642 1.731 1.092-.008-.341-1.758-2.033-2.102-2.033-.135 0 .032.424.371.941m-16.332.845c-.13.34-.067.91.141 1.266.353.604.379.604.39-.001.007-.358.119-.927.249-1.266.13-.339.061-.616-.153-.616-.215 0-.497.278-.627.617m126.726.382c-.209.549-.366 1.207-.349 1.46.017.254.207-.02.422-.609s.552-1.071.748-1.071c.197 0 .357-.176.357-.39 0-.781-.808-.363-1.178.61m126.952-.318c-.118 1.155-.376 1.856-.728 1.973-.226.075-.391.867-.366 1.76l.045 1.623.27-1.377c.148-.757.403-1.592.566-1.856.379-.614.711-2.415.445-2.415-.111 0-.216.132-.232.292M19.409 132.65c.095 2.183-.02 3.123-.441 3.603-.314.358-.691 1.048-.839 1.533-.161.527-.453.776-.728.619-.252-.145-.328-.119-.169.057.159.175-.06.564-.487.863-.427.299-.776.797-.776 1.106 0 .309-.219.566-.487.571-.795.014-2.564 1.53-1.797 1.54.93.013 5.036-3.981 5.111-4.971.035-.463.289-.929.566-1.034.548-.211.752-6.838.21-6.84-.161 0-.234 1.328-.163 2.953m126.542-2.144c.226.863.884 1.017.884.208 0-.299-.243-.636-.54-.75-.379-.146-.481.016-.344.542m107.214.815c0 1.418.17 1.367.536-.162.153-.636.096-1.071-.14-1.071-.218 0-.396.555-.396 1.233m-126.972.325c0 .428.164.779.365.779.201 0 .339-.351.307-.779-.033-.429-.197-.779-.366-.779-.168 0-.306.35-.306.779m.183 2.831c.079.963.376 2.166.661 2.673.898 1.595 3.085 4.233 3.511 4.233.225 0-.313-.743-1.195-1.652-.881-.908-1.602-1.945-1.602-2.304 0-.359-.175-.712-.389-.783-.215-.071-.439-.865-.499-1.765-.06-.899-.227-1.751-.37-1.894-.143-.143-.195.528-.117 1.492m126.789.09c0 .749.162 1.363.361 1.363.199 0 .331-.613.292-1.362-.09-1.774-.653-1.775-.653-.001m127.1.164c.041 1.078.269 1.789.607 1.901.371.122.439.013.217-.346-.178-.289-.451-1.144-.607-1.901-.274-1.328-.281-1.316-.217.346m-234.598 2.253c0 .223-.701 1.172-1.558 2.11-1.837 2.009-2.077 2.834-.364 1.251 1.301-1.203 2.502-3.186 2.145-3.543-.122-.122-.223-.041-.223.182m108.277-.089c0 .133.251.728.558 1.322.669 1.293 1.778 2.318 1.778 1.643 0-.247-.262-.55-.584-.673-.321-.124-.584-.481-.584-.795 0-.314-.263-.833-.584-1.155-.322-.321-.584-.475-.584-.342m127.251.885c.141.375.94 1.383 1.775 2.239 1.149 1.179 1.402 1.321 1.039.585-.265-.536-.718-1.114-1.008-1.285-.29-.172-.528-.664-.528-1.095 0-.43-.175-.674-.389-.541-.214.132-.39.055-.39-.172 0-.227-.17-.413-.377-.413s-.262.307-.122.682m-109.238-.012a.79.79 0 00-.487.691c0 .285-.526.96-1.168 1.501-1.205 1.013-1.436 1.423-.805 1.423.409 0 3.336-3.453 3.099-3.657-.083-.072-.371-.053-.639.042m126.485.304c-.267.321-.354.584-.195.584.16 0 .074.261-.191.58-.265.319-.637.484-.827.367-.189-.118-.345.06-.345.393 0 .334-.244.608-.542.608-.299 0-.648.274-.777.609-.128.335-.41.499-.626.366-.215-.133-.392-.038-.392.212s-.257.355-.572.235c-.314-.121-.682-.04-.818.179-.136.22-.492.305-.791.19-.3-.115-.545-.02-.545.212 0 1.362 5.019-1.186 6.612-3.356.933-1.271.941-2.302.009-1.179M1.785 139.533c.451 1.085 4.214 3.49 3.809 2.434-.124-.321-.455-.584-.737-.584s-1.039-.526-1.681-1.169c-1.243-1.242-1.722-1.477-1.391-.681m129.477 1.921c-.006.679.414.876 2.72 1.275l1.364.236-1.364-.657c-.749-.362-1.522-.621-1.717-.576-.194.045-.498-.147-.675-.426-.243-.384-.323-.348-.328.148m253.548-.084c0 .526.972 1.18 1.733 1.167.76-.013.756-.037-.09-.507-.488-.271-.795-.586-.681-.7.113-.114-.056-.207-.378-.207-.321 0-.584.111-.584.247m-117.624.563c-.75.273-1.933.467-2.629.431-.696-.036-1.266.076-1.266.25 0 .338 3.382.152 4.671-.257.579-.184 1.245-1.105.685-.947-.054.015-.711.251-1.461.523m-260.75.212c-.139.227.028.52.372.652.857.329 1.123-.033.442-.599-.384-.318-.639-.335-.814-.053m133.583.017c-.306.496.596.496 1.364 0 .475-.307.424-.379-.269-.384-.47-.003-.962.169-1.095.384m118.598 0c.322.207.847.377 1.169.377.519 0 .519-.042 0-.377-.322-.208-.847-.378-1.169-.378-.519 0-.519.042 0 .378m-120.35.389c-.473.305-.417.379.292.384.482.003.876-.17.876-.384 0-.488-.413-.488-1.168 0M6.621 246.693c0 .082.438.233.974.335.535.103.974.035.974-.149 0-.185-.439-.336-.974-.336-.536 0-.974.068-.974.15m132.035.435c1.099.627 2.337.756 2.337.243 0-.187-.548-.45-1.217-.584-1.859-.372-2.19-.271-1.12.341m122.081-.232c.12.194.568.262.997.15 1.071-.281.975-.503-.219-.503-.548 0-.898.159-.778.353m5.281.256a60.91 60.91 0 012.044.988c.375.196.682.256.682.131 0-.58-1.135-1.243-2.542-1.484l-1.548-.265 1.364.63m-252.87.04a.445.445 0 01.229.65c-.143.25-.121.33.047.177.342-.308 2.58.729 3.026 1.402.208.315.288.313.292-.008.008-.636-2.541-2.486-3.376-2.449-.413.018-.504.112-.218.228m118.523.484c-.295.409-.751.661-1.014.56-.609-.233-3.296 3.017-3.296 3.989 0 .5.237.301.745-.624.41-.747.948-1.309 1.197-1.251.249.059.361-.041.249-.222-.112-.182.138-.622.556-.98.417-.357.759-.551.759-.43 0 .12.458-.142 1.019-.583.561-.441 1.174-.706 1.363-.59.189.117.344.027.344-.2 0-.692-1.352-.459-1.922.331m253.521-.15c-.767.924-.273 1.009.997.172 1.023-.675 1.059-.76.324-.763-.456-.001-1.05.265-1.321.591M2.824 248.902c-1.174 1.1-1.49 1.536-1.114 1.536.358 0 3.121-2.709 2.769-2.715-.214-.004-.959.526-1.655 1.179m392.513-.898c.006.161.602.73 1.325 1.266.723.535 1.245 1.087 1.16 1.225-.166.269 1.026.835 1.262.599.193-.193-3.055-3.382-3.445-3.382-.172 0-.308.131-.302.292m-125.425 1.071c.503.536 1.09.974 1.305.974.214 0-.023-.438-.526-.974s-1.09-.974-1.304-.974c-.214 0 .022.438.525.974m113.394-.182c-.505.421-.737.766-.514.766.393 0 1.629-1.055 1.629-1.391 0-.265-.139-.188-1.115.625m-239.235 1.103c.515.458.778.834.585.838-.194.003-.162.134.071.292.232.157.621.636.864 1.065.243.428.447.586.454.35.018-.669-1.674-2.996-2.325-3.196-.322-.099-.163.194.351.651m111.355-.045c-1.005 1.171-1.191 1.669-.529 1.415.332-.128.604-.376.604-.552 0-.176.276-.596.613-.932.336-.337.451-.612.255-.612-.197 0-.621.306-.943.681m-237.169.989c-.184 1.049-.114 1.362.514 2.285.753 1.107 1.014 5.677.364 6.386-.187.203-.455.895-.596 1.538-.188.855-.151 1.012.138.584.218-.321.398-.891.402-1.266.003-.374.181-.681.395-.681.762 0 .458-5.933-.389-7.595-.429-.84-.801-1.403-.828-1.251m380.379 1.057c-.208.336-.162.415.135.231.264-.163.45-.036.45.306 0 .322.175.693.39.825.557.345.48-.31-.136-1.153-.41-.56-.593-.606-.839-.209M126.49 253.95c-.343 2.182-.354 4.667-.021 4.667.169.001.291-.92.269-2.044-.021-1.125.087-2.133.239-2.24.153-.107.154-.542.002-.967-.225-.631-.315-.523-.489.584m253.895-.905c-.137.137-.249.95-.249 1.807 0 1.772.248 1.808.448.065.074-.642.285-1.278.469-1.412.184-.134.165-.348-.042-.476-.207-.128-.489-.121-.626.016m-234.469 1.093c.123.322.38.584.572.584.191 0 .347-.262.347-.584a.58.58 0 00-.572-.584c-.348 0-.484.228-.347.584m107.279.682c.017.696.129 1.003.248.681.119-.321.374-.89.567-1.265.26-.506.196-.682-.248-.682-.421 0-.588.374-.567 1.266m20.19 1.168c-.018.054-.108.84-.199 1.748-.183 1.83-1.539 4.733-2.357 5.047-.29.111-.527.488-.527.838 0 2.172 3.081-3.249 3.343-5.88.142-1.431-.014-2.481-.26-1.753m106.751 2.24c0 .857.136 1.558.303 1.558.166 0 .235-.701.154-1.558-.082-.857-.218-1.558-.303-1.558-.084 0-.154.701-.154 1.558m-126.944-.098c-.015.697.148 1.266.362 1.266.462 0 .462-.676 0-1.752-.28-.653-.339-.574-.362.486m-126.61 1.049c0 .19.297 1.017.659 1.839.734 1.663 1.49 2.075.884.482-.448-1.18-1.543-2.826-1.543-2.321M.441 260.565c-.06.883.572 1.735.896 1.21.147-.237.094-.431-.117-.431-.211 0-.464-.307-.562-.682-.126-.483-.19-.511-.217-.097m398.811.12c-.017.388-.204.598-.416.467-.215-.133-.289.011-.169.326.121.315-.137.812-.586 1.126-.441.309-.71.655-.596.768.113.114-.458.522-1.269.907-.811.385-1.264.77-1.007.856 1.155.385 4.731-3.525 4.27-4.668-.114-.282-.209-.189-.227.218m-145.043.617c.231.883.816 1.427 1.163 1.08.114-.114-.15-.591-.586-1.06l-.794-.853.217.833m-109.581.637c0 .673.714.573.95-.133.085-.254-.094-.462-.398-.462-.303 0-.552.267-.552.595m-142.951.434c-.166.435.181.994 1.084 1.743 1.423 1.18 2.848 1.613 1.774.538-.322-.321-.745-.584-.941-.584-.606 0-1.738-1.484-1.467-1.923.141-.227.152-.414.026-.414-.127 0-.341.288-.476.64m15.895-.047c-.027.475-.587 1.08-1.408 1.522-1.235.665-1.811 1.407-1.071 1.38.849-.03 2.893-2.239 2.716-2.935-.183-.72-.194-.718-.237.033m364.557.236c-.025.349.218.852.539 1.119.404.335.584.349.584.047 0-.24-.162-.437-.361-.437-.198 0-.441-.307-.539-.681-.15-.576-.185-.583-.223-.048m-252.433 1.59c.956.89 1.145.878.901-.055-.114-.434-.503-.729-.923-.697-.701.053-.701.078.022.752m12.656.314c-.134.218-.397.302-.583.186-.186-.115-.501.081-.699.435-.256.458-.939.658-2.36.69-1.099.025-2 .181-2 .345-.001.407 4.343.03 4.635-.402.128-.189.539-.457.914-.595.375-.138.682-.432.682-.653 0-.513-.274-.515-.589-.006m125.223.797c-.749.395-1.554.655-1.788.578-.233-.078-.671.016-.973.208-.355.225.048.293 1.135.192.926-.085 1.978-.41 2.337-.723.359-.312.916-.664 1.237-.782.519-.191.519-.214 0-.204-.321.007-1.198.335-1.948.731m-262.253.145c-.132.342.155.629.787.788 1.318.33 1.403.157.317-.655-.733-.548-.936-.573-1.104-.133m380.472-.185c-.343.555-.273.625.964.966.665.184.804.152.44-.1-.293-.203-.665-.584-.827-.846-.224-.362-.363-.366-.577-.02m-372.941.67l-.974.579.974-.222c.536-.122 1.105-.224 1.266-.227.16-.003.292-.181.292-.395 0-.506-.364-.444-1.558.265m118.979-.278c.105.17.569.407 1.032.528.627.164.729.108.4-.221-.51-.51-1.717-.768-1.432-.307m126.785.046c0 .146.439.349.974.452.587.112.974.006.974-.266 0-.249-.438-.453-.974-.453-.535 0-.974.12-.974.267m133.983.017c0 .212-.163.285-.363.161-.199-.123-.454-.075-.567.107-.112.182.095.348.46.368 1.064.058 2.883-.35 2.64-.593-.402-.402-2.17-.437-2.17-.043m-258.618.394c0 .184.439.335.974.335.536 0 .974-.067.974-.149 0-.082-.438-.233-.974-.336-.535-.102-.974-.035-.974.15m126.972-.001c0 .185.555.336 1.234.336 1.425 0 1.265-.398-.226-.561-.554-.061-1.008.04-1.008.225M7.656 369.912c-.099.161.862.33 2.134.377 1.409.051 2.223-.063 2.081-.292-.272-.441-3.951-.514-4.215-.085m126.716.094c0 .22.923.346 2.14.292 2.785-.122 2.787-.678.002-.678-1.178 0-2.142.174-2.142.386m126.972-.061c0 .178.569.331 1.266.34.696.008 1.441.058 1.655.111.736.18 1.363.003 1.363-.386 0-.214-.964-.39-2.142-.39s-2.142.146-2.142.325m126.842-.065c-.579.579-.198.837.811.549.589-.169 1.509-.259 2.045-.2l1.289.138c.173.018.208.205.077.417-.138.223.022.285.378.149.546-.21.537-.296-.077-.762-.712-.54-4.059-.755-4.523-.291m-375.723.884c0 .246.22.42.487.385 1.293-.168 1.932.162 3.45 1.782 1.813 1.934 2.883 2.404 1.449.636-1.662-2.048-5.386-3.987-5.386-2.803m128.335.266c.429.326.738.749.687.941-.051.191.147.255.441.143.677-.26 2.261 1.207 3.13 2.898.367.716.756 1.214.863 1.107.587-.586-2.563-4.551-3.616-4.551-.292 0-.531-.155-.531-.344 0-.19-.394-.444-.876-.565-.861-.217-.863-.211-.098.371m-10.321.55c-1.8 1.417-1.947 1.575-1.947 2.094 0 .284.626-.073 1.391-.795.765-.721 1.553-1.311 1.752-1.311.199 0 .362-.176.362-.39 0-.576-.467-.456-1.558.402m138.074-.01c.389.43.792.697.895.594.262-.262-.71-1.375-1.2-1.375-.221 0-.084.351.305.781m115.631.095c-1.28.999-2.876 2.759-2.68 2.955.231.233 2.505-1.608 2.332-1.887-.091-.148.266-.5.795-.783.528-.283.96-.66.96-.838 0-.478-.172-.411-1.407.553m-381.589.895c-.807.739-1.327 1.347-1.154 1.351.172.003.053.17-.266.372-.457.289-.399.353.276.302.47-.036.781-.139.69-.229-.31-.31.615-1.62 1.144-1.62.478 0 1.19-1.109.899-1.401-.066-.066-.781.485-1.589 1.225m393.123-1.053c0 .248.185.45.412.45.227 0 .304.175.172.39-.132.214-.019.389.252.389s1.083.657 1.805 1.461c.844.939 1.152 1.137.864.554-.247-.498-.754-1.199-1.127-1.558-1.667-1.601-2.378-2.105-2.378-1.686m-139.06.56c-.95.752-2.419 3.006-1.96 3.006a.415.415 0 00.416-.412c0-.227.202-.288.45-.135.279.173.344.107.17-.175-.305-.493.614-1.615 1.323-1.615.242 0 .313-.205.158-.456-.191-.309-.066-.373.387-.199.397.153.572.1.43-.128-.307-.498-.637-.471-1.374.114m13.256.264c0 .435 1.204 1.668 1.419 1.453.087-.087.052-.432-.076-.767-.261-.68-1.343-1.233-1.343-.686m-16.261 4.186c-.562 1.212-.656 3.381-.132 3.057.195-.121.305-.526.244-.9s.121-1.249.404-1.946c.62-1.521.177-1.702-.516-.211m18.799-.702c.17.301.373 1.128.452 1.837.267 2.425.947 3.31.73.95-.116-1.261-.458-2.365-.844-2.726-.461-.433-.559-.45-.338-.061m-145.631.653c-.366.953-.287 1.079.348.552.647-.537.775-1.168.236-1.168-.191 0-.454.277-.584.616m-107.908.13c-.126.203-.085.457.091.566.175.108.361 1.538.414 3.177.071 2.239-.021 2.908-.373 2.691-.299-.185-.366-.125-.186.166.635 1.028 1.007-.175 1.007-3.256 0-2.984-.371-4.286-.953-3.344m361.225 3.126c0 3.273.361 4.519 1.007 3.474.185-.298.113-.351-.208-.153-.384.238-.46-.467-.352-3.25.075-1.955.006-3.554-.155-3.554-.16 0-.292 1.568-.292 3.483m-234.08-2.337c0 .441.176.802.39.802.214 0 .389-.253.389-.561 0-.309-.175-.67-.389-.802-.214-.133-.39.12-.39.561m-19.808 2.555c-.024 1.986.342 2.685.919 1.752.132-.214.07-.389-.138-.389-.21 0-.311-.779-.229-1.753.081-.964-.004-1.753-.189-1.753-.186 0-.349.964-.363 2.143m19.938.779c0 1.178.128 2.142.285 2.142.156 0 .277-.964.267-2.142-.009-1.179-.137-2.143-.284-2.143-.147 0-.268.964-.268 2.143m106.979.811c0 .926.16 1.342.476 1.237.414-.138.51-.762.346-2.243-.119-1.066-.822-.205-.822 1.006m19.838-.519c-.235.921-.189 2.629.071 2.629.189 0 .346-.219.349-.487.003-.268.111-.881.24-1.363.141-.526.061-.877-.2-.877-.239 0-.446.044-.46.098m-127.354 2.337c-.044.16-.101.45-.128.644-.027.194-.531.894-1.12 1.555-.589.661-1.071 1.388-1.071 1.615 0 .227-.613.669-1.363.982-1.543.645-1.8.988-.487.651 1.215-.312 3.019-1.691 3.019-2.307 0-.281.179-.511.399-.511.486 0 1.253-1.899 1.007-2.494-.097-.235-.212-.296-.256-.135m108.295.266c0 .784.781 2.363 1.168 2.363.247 0 .179-.445-.169-1.119-.319-.616-.469-1.229-.335-1.364.134-.134.04-.244-.21-.244s-.454.164-.454.364m144.888.909c0 .296-.433.945-.962 1.442-.529.497-.855 1.077-.723 1.29.132.213.566-.029.972-.544 1.238-1.567 1.529-2.223 1.103-2.486-.215-.133-.39.001-.39.298m-271.222.567c.124.473.553.965.954 1.092.401.127.689.356.639.507-.15.463 1.412 1.9 2.394 2.202.635.196.841.15.659-.146-.147-.237-.445-.432-.662-.432-.217 0-1.253-.918-2.302-2.042-1.343-1.438-1.841-1.787-1.682-1.181M1.636 386.391c.484.655.946.995 1.025.756.16-.478-1.021-1.947-1.565-1.947-.187 0 .056.536.54 1.191m15.53-.214c-.52.512-1.087.843-1.261.736-.174-.108-.212.076-.085.409.129.335.028.604-.227.604-.252 0-.722.263-1.043.584-.341.341-.403.584-.149.584.239 0 .869-.434 1.4-.964.53-.531 1.092-1.001 1.248-1.045.435-.124 1.746-1.889 1.382-1.862-.176.013-.745.443-1.265.954m254.202-.43c-.321.321-.692.505-.825.408-.133-.097-.164-.07-.069.06.208.288-1.24 1.826-2.314 2.458-.712.419-.695.436.194.194.965-.261 4.102-3.201 3.771-3.532-.095-.095-.435.09-.757.412m110.777.621c.475.643 1.007 1.169 1.18 1.169.174 0 .667.35 1.096.778.428.429 1.085.769 1.46.757.628-.022.624-.06-.042-.487-1.72-1.103-2.579-1.914-2.376-2.244.121-.194-.082-.238-.449-.097-.423.162-.575.104-.412-.158.141-.229-.02-.521-.358-.651-.996-.382-1.005-.293-.099.933m-126.644.376c0 .207.334.554.741.772.63.337.711.281.539-.376-.202-.772-1.28-1.106-1.28-.396m-252.385.71c0 .439 1.49 1.64 2.034 1.64.167 0 .303-.175.303-.389 0-.214-.206-.39-.456-.39-.251 0-.777-.29-1.169-.644-.392-.355-.712-.452-.712-.217m391.997.565c-.204.18-.718.567-1.143.86-.724.499-.706.519.293.328.585-.112 1.063-.369 1.063-.57 0-.202.156-.271.346-.154.189.117.553-.038.808-.345.524-.631-.671-.736-1.367-.119" fill="#042c5c"/></g></svg>